<svg width="962" height="66" viewBox="0 0 962 66" fill="none" xmlns="http://www.w3.org/2000/svg">
<path opacity="0.5" d="M0.5 20H442.5L481.5 59L520.5 20H961.5" stroke="white" stroke-width="2"/>
<path d="M478.563 8.69658C479.4 6.43447 482.6 6.43448 483.437 8.69658L485.147 13.318C485.41 14.0292 485.971 14.59 486.682 14.8531L491.303 16.5632C493.566 17.4003 493.566 20.5997 491.303 21.4368L486.682 23.1469C485.971 23.41 485.41 23.9708 485.147 24.682L483.437 29.3034C482.6 31.5655 479.4 31.5655 478.563 29.3034L476.853 24.682C476.59 23.9708 476.029 23.41 475.318 23.1469L470.697 21.4368C468.434 20.5997 468.434 17.4003 470.697 16.5632L475.318 14.8531C476.029 14.59 476.59 14.0292 476.853 13.318L478.563 8.69658Z" fill="#F2C94C"/>
</svg>
