<svg width="960" height="66" viewBox="0 0 960 66" fill="none" xmlns="http://www.w3.org/2000/svg">
<path opacity="0.5" fill-rule="evenodd" clip-rule="evenodd" d="M433.086 18H0V16H433.914L480.5 62.5858L527.086 16H960V18H527.914L480.5 65.4142L433.086 18Z" fill="white"/>
<path d="M476.751 2.2621C477.867 -0.754034 482.133 -0.754033 483.249 2.2621L485.529 8.42403C485.88 9.37229 486.628 10.1199 487.576 10.4708L493.738 12.7509C496.754 13.867 496.754 18.133 493.738 19.2491L487.576 21.5292C486.628 21.8801 485.88 22.6277 485.529 23.576L483.249 29.7379C482.133 32.754 477.867 32.754 476.751 29.7379L474.471 23.576C474.12 22.6277 473.372 21.8801 472.424 21.5292L466.262 19.2491C463.246 18.133 463.246 13.867 466.262 12.7509L472.424 10.4708C473.372 10.1199 474.12 9.37229 474.471 8.42403L476.751 2.2621Z" fill="#F2C94C"/>
</svg>
