<svg width="134" height="16" viewBox="0 0 134 16" fill="none" xmlns="http://www.w3.org/2000/svg">
<path d="M61.4435 5.11105C61.4435 6.02956 61.2733 6.80734 60.9329 7.44438C60.5924 8.0666 60.1336 8.5703 59.5563 8.95549C58.9791 9.34068 58.313 9.62216 57.5582 9.79993C56.8033 9.97771 56.0188 10.0666 55.2047 10.0666H53.3176V15.9999H49.521V0.266602H55.2935C56.152 0.266602 56.9513 0.35549 57.6914 0.533268C58.4462 0.69623 59.0975 0.970304 59.6452 1.35549C60.2076 1.72586 60.6443 2.22216 60.9551 2.84438C61.2807 3.45179 61.4435 4.20734 61.4435 5.11105ZM57.647 5.13327C57.647 4.7629 57.573 4.45919 57.4249 4.22216C57.2769 3.98512 57.0771 3.79993 56.8255 3.6666C56.5739 3.53327 56.2852 3.44438 55.9596 3.39993C55.6488 3.35549 55.3231 3.33327 54.9827 3.33327H53.3176V7.04438H54.9161C55.2713 7.04438 55.6118 7.01475 55.9374 6.95549C56.263 6.89623 56.5517 6.79253 56.8033 6.64438C57.0697 6.49623 57.2769 6.30364 57.4249 6.0666C57.573 5.81475 57.647 5.50364 57.647 5.13327Z" fill="white"/>
<path d="M63.7225 15.9999V0.266602H67.5413V12.6888H73.6247V15.9999H63.7225Z" fill="white"/>
<path d="M86.066 15.9999L84.8449 12.911H78.7615L77.607 15.9999H73.4774L80.0714 0.266602H83.757L90.2844 15.9999H86.066ZM81.8476 4.4666L79.8494 9.8666H83.8014L81.8476 4.4666Z" fill="white"/>
<path d="M101.575 15.9999L95.2469 5.71104H95.1803L95.2691 15.9999H91.5836V0.266602H95.913L102.218 10.5333H102.285L102.196 0.266602H105.882V15.9999H101.575Z" fill="white"/>
<path d="M109.124 15.9999V0.266602H119.692V3.48882H112.787V6.44438H119.315V9.48882H112.787V12.7555H120.092V15.9999H109.124Z" fill="white"/>
<path d="M129.337 3.51104V15.9999H125.541V3.51104H121.1V0.266602H133.778V3.51104H129.337Z" fill="white"/>
<path fill-rule="evenodd" clip-rule="evenodd" d="M16.3166 0.113124C16.7072 0.504085 16.0636 1.85158 14.7223 3.68176C14.2186 2.89711 13.5818 2.20628 12.8436 1.6413C14.625 0.344843 15.9326 -0.271218 16.3166 0.113124ZM1.7078 12.943C2.8811 11.2318 4.79257 8.98159 7.10506 6.667C9.18495 4.58523 11.2128 2.82816 12.8436 1.6413C11.4984 0.611686 9.81697 8.90706e-06 7.99276 8.90706e-06C3.57848 8.90706e-06 0 3.58173 0 8.00001C0 9.86574 0.638107 11.5823 1.7078 12.943ZM3.5855 14.6749C5.28398 13.496 7.49524 11.6084 9.76863 9.33299C11.8094 7.29037 13.5379 5.29788 14.7223 3.68176C15.5218 4.9274 15.9855 6.4095 15.9855 8.00001C15.9855 12.4183 12.407 16 7.99276 16C6.36395 16 4.84893 15.5124 3.5855 14.6749ZM3.5855 14.6749C2.87077 14.2012 2.23656 13.6156 1.7078 12.943C0.673068 14.4521 0.212428 15.5419 0.55711 15.8869C0.908399 16.2385 2.03265 15.7528 3.5855 14.6749ZM22.1577 5.71111L28.4853 16H32.7925V0.266672H29.107L29.1958 10.5333H29.1292L22.8238 0.266672H18.4944V16H22.1799L22.0911 5.71111H22.1577ZM36.0349 0.266672V16H47.0028V12.7556H39.6983V9.48889H46.2257V6.44445H39.6983V3.48889H46.6031V0.266672H36.0349Z" fill="#EB5757"/>
</svg>
