<svg width="626" height="465" viewBox="0 0 626 465" fill="none" xmlns="http://www.w3.org/2000/svg">
<mask id="mask0" mask-type="alpha" maskUnits="userSpaceOnUse" x="10" y="12" width="607" height="439">
<path d="M392.906 427.968C375.405 416.713 352.313 414.641 334.023 424.564C302.946 441.424 267.341 451 229.5 451C108.273 451 10 352.727 10 231.5C10 110.273 108.273 12 229.5 12C315.267 12 389.545 61.1904 425.66 132.898C434.163 149.78 452.597 160 471.5 160C551.857 160 617 225.143 617 305.5C617 385.857 551.857 451 471.5 451C442.549 451 415.573 442.544 392.906 427.968Z" fill="url(#paint0_linear)"/>
</mask>
<g mask="url(#mask0)">
<path d="M642.548 398.871L633.99 400.794L627.802 406.683L616.808 397.494L627.143 387.886L641.108 384.622L642.548 398.871Z" fill="#F2C94C"/>
<path d="M711.241 356.346L621.196 376.671L554.053 439.689L464.007 460.014L396.657 523.143L306.819 543.357L239.468 606.486L146.778 627.342L145.34 613.09L232.623 593.577L299.974 530.448L389.812 510.234L457.163 447.105L547.208 426.78L614.351 363.762L704.397 343.437L769.526 282.139L780.516 291.327L711.241 356.346Z" fill="#F2C94C"/>
<path d="M698.453 332.227L608.408 352.551L541.265 415.57L451.219 435.894L383.868 499.023L294.03 519.237L226.68 582.366L133.99 603.222L132.552 588.97L219.835 569.457L287.186 506.328L377.024 486.114L444.375 422.985L534.42 402.661L601.563 339.642L691.609 319.318L756.738 258.02L767.728 267.208L698.453 332.227Z" fill="#F2C94C"/>
<path d="M685.664 308.107L595.619 328.431L528.476 391.45L438.43 411.775L371.079 474.903L281.241 495.118L213.891 558.246L121.201 579.102L119.763 564.85L207.046 545.337L274.397 482.209L364.235 461.994L431.585 398.865L521.631 378.541L588.774 315.522L678.82 295.198L743.949 233.9L754.939 243.088L685.664 308.107Z" fill="#F2C94C"/>
<path d="M672.876 283.987L582.83 304.312L515.687 367.33L425.642 387.655L358.291 450.784L268.453 470.998L201.103 534.127L108.413 554.983L106.974 540.731L194.258 521.217L261.609 458.089L351.447 437.874L418.797 374.746L508.843 354.421L575.986 291.403L666.031 271.078L731.16 209.78L742.15 218.968L672.876 283.987Z" fill="#F2C94C"/>
<path d="M660.088 259.868L570.042 280.192L502.899 343.211L412.853 363.536L345.503 426.664L255.665 446.879L188.314 510.007L95.6242 530.863L94.1859 516.611L181.47 497.098L248.82 433.97L338.658 413.755L406.009 350.626L496.054 330.302L563.197 267.283L653.243 246.959L718.372 185.661L729.362 194.849L660.088 259.868Z" fill="#F2C94C"/>
<path d="M647.299 235.748L557.253 256.073L490.11 319.091L400.065 339.416L332.714 402.544L242.876 422.759L175.526 485.887L82.8356 506.744L81.3974 492.491L168.681 472.978L236.032 409.85L325.87 389.635L393.22 326.507L483.266 306.182L550.409 243.163L640.454 222.839L705.583 161.541L716.573 170.729L647.299 235.748Z" fill="#F2C94C"/>
<path d="M634.511 211.628L544.465 231.953L477.322 294.971L387.276 315.296L319.926 378.425L230.088 398.639L162.737 461.768L70.0473 482.624L68.609 468.372L155.893 448.859L223.243 385.73L313.081 365.516L380.432 302.387L470.478 282.062L537.621 219.044L627.666 198.719L692.795 137.421L703.785 146.609L634.511 211.628Z" fill="#F2C94C"/>
<path d="M621.722 187.509L531.677 207.833L464.534 270.852L374.488 291.176L307.137 354.305L217.299 374.52L149.949 437.648L57.2587 458.504L55.8204 444.252L143.104 424.739L210.455 361.61L300.293 341.396L367.643 278.267L457.689 257.943L524.832 194.924L614.878 174.6L680.007 113.302L690.997 122.49L621.722 187.509Z" fill="#F2C94C"/>
<path d="M608.934 163.389L518.888 183.713L451.745 246.732L361.699 267.057L294.349 330.185L204.511 350.4L137.16 413.528L44.4702 434.384L43.0319 420.132L130.316 400.619L197.666 337.491L287.504 317.276L354.855 254.147L444.9 233.823L512.043 170.804L602.089 150.48L667.218 89.1819L678.208 98.3698L608.934 163.389Z" fill="#F2C94C"/>
<path d="M596.145 139.269L506.1 159.594L438.957 222.612L348.911 242.937L281.56 306.065L191.722 326.28L124.372 389.409L31.6818 410.265L30.2435 396.012L117.527 376.499L184.878 313.371L274.716 293.156L342.066 230.028L432.112 209.703L499.255 146.685L589.301 126.36L654.43 65.0622L665.42 74.2501L596.145 139.269Z" fill="#F2C94C"/>
<path d="M583.357 115.15L493.311 135.474L426.168 198.493L336.122 218.818L268.772 281.946L178.934 302.161L111.583 365.289L18.8933 386.145L17.455 371.893L104.739 352.38L172.089 289.252L261.927 269.037L329.278 205.908L419.323 185.584L486.466 122.565L576.512 102.241L641.641 40.9428L652.631 50.1308L583.357 115.15Z" fill="#F2C94C"/>
<path d="M570.568 91.0299L480.522 111.355L413.379 174.373L323.334 194.698L255.983 257.826L166.145 278.041L98.7947 341.169L6.10468 362.026L4.66639 347.773L91.9502 328.26L159.301 265.132L249.139 244.917L316.489 181.789L406.535 161.464L473.678 98.4454L563.724 78.1208L628.853 16.823L639.842 26.0109L570.568 91.0299Z" fill="#F2C94C"/>
<path d="M557.779 66.9101L467.734 87.2347L400.591 150.253L310.545 170.578L243.194 233.706L153.356 253.921L86.0059 317.049L-6.68414 337.906L-8.12242 323.653L79.1613 304.14L146.512 241.012L236.35 220.797L303.7 157.669L393.746 137.344L460.889 74.3255L550.935 54.0009L616.064 -7.29691L627.054 1.891L557.779 66.9101Z" fill="#F2C94C"/>
<path d="M544.991 42.7904L454.945 63.115L387.802 126.134L297.757 146.458L230.406 209.587L140.568 229.801L73.2176 292.93L-19.4725 313.786L-20.9108 299.534L66.373 280.021L133.724 216.892L223.562 196.678L290.912 133.549L380.958 113.224L448.101 50.2059L538.146 29.8813L603.275 -31.4165L614.265 -22.2286L544.991 42.7904Z" fill="#F2C94C"/>
<path d="M532.202 18.6708L442.157 38.9954L375.014 102.014L284.968 122.339L217.618 185.467L127.78 205.682L60.429 268.81L-32.261 289.666L-33.6993 275.414L53.5844 255.901L120.935 192.773L210.773 172.558L278.124 109.429L368.169 89.1048L435.312 26.0863L525.358 5.76168L590.487 -55.5362L601.477 -46.3482L532.202 18.6708Z" fill="#F2C94C"/>
<path d="M519.414 -5.44859L429.368 14.876L362.225 77.8945L272.18 98.2191L204.829 161.348L114.991 181.562L47.6406 244.691L-45.0494 265.547L-46.4877 251.295L40.7961 231.782L108.147 168.653L197.985 148.439L265.335 85.31L355.381 64.9854L422.524 1.96689L512.569 -18.3577L577.698 -79.6556L588.688 -70.4676L519.414 -5.44859Z" fill="#F2C94C"/>
<path d="M506.625 -29.5682L416.58 -9.24362L349.437 53.7749L259.391 74.0995L192.041 137.228L102.203 157.443L34.8521 220.571L-57.8379 241.427L-59.2762 227.175L28.0075 207.662L95.3581 144.533L185.196 124.319L252.547 61.1904L342.592 40.8658L409.735 -22.1527L499.781 -42.4773L564.91 -103.775L575.9 -94.5873L506.625 -29.5682Z" fill="#F2C94C"/>
<path d="M493.837 -53.6883L403.791 -33.3637L336.648 29.6548L246.603 49.9794L179.252 113.108L89.414 133.323L22.0635 196.451L-70.6265 217.307L-72.0648 203.055L15.2189 183.542L82.5695 120.413L172.407 100.199L239.758 37.0703L329.804 16.7457L396.947 -46.2729L486.992 -66.5975L552.121 -127.895L563.111 -118.707L493.837 -53.6883Z" fill="#F2C94C"/>
<path d="M481.048 -77.8077L391.003 -57.4831L323.86 5.53541L233.814 25.86L166.463 88.9886L76.6255 109.203L9.27493 172.332L-83.4151 193.188L-84.8534 178.936L2.43037 159.423L69.7809 96.294L159.619 76.0795L226.97 12.9509L317.015 -7.37371L384.158 -70.3922L474.204 -90.7168L539.333 -152.015L550.323 -142.827L481.048 -77.8077Z" fill="#F2C94C"/>
<path d="M468.26 -101.928L378.214 -81.603L311.071 -18.5845L221.026 1.74013L153.675 64.8687L63.8371 85.0832L-3.5134 148.212L-96.2034 169.068L-97.6417 154.816L-10.358 135.303L56.9926 72.1741L146.831 51.9596L214.181 -11.169L304.227 -31.4936L371.37 -94.5121L461.415 -114.837L526.544 -176.135L537.534 -166.947L468.26 -101.928Z" fill="#F2C94C"/>
<path d="M455.471 -126.047L365.426 -105.723L298.283 -42.7041L208.237 -22.3795L140.887 40.7491L51.0486 60.9636L-16.302 124.092L-108.992 144.948L-110.43 130.696L-23.1465 111.183L44.204 48.0545L134.042 27.84L201.393 -35.2886L291.438 -55.6132L358.581 -118.632L448.627 -138.956L513.756 -200.254L524.746 -191.066L455.471 -126.047Z" fill="#F2C94C"/>
<path d="M128.104 16.6329L114.138 19.8966L112.699 5.64749L121.257 3.72517L127.653 -2.27334L138.646 6.91526L128.104 16.6329Z" fill="#F2C94C"/>
</g>
<defs>
<linearGradient id="paint0_linear" x1="552" y1="114.5" x2="9.99997" y2="393" gradientUnits="userSpaceOnUse">
<stop stop-color="#F2C94C"/>
<stop offset="1" stop-color="#F2C94C" stop-opacity="0"/>
</linearGradient>
</defs>
</svg>
