<svg width="607" height="551" viewBox="0 0 607 551" fill="none" xmlns="http://www.w3.org/2000/svg">
<mask id="mask0" mask-type="alpha" maskUnits="userSpaceOnUse" x="0" y="57" width="607" height="439">
<path d="M382.906 472.968C365.405 461.713 342.313 459.641 324.023 469.564C292.946 486.424 257.341 496 219.5 496C98.2735 496 0 397.727 0 276.5C0 155.273 98.2735 57 219.5 57C305.267 57 379.545 106.19 415.66 177.898C424.163 194.78 442.597 205 461.5 205C541.857 205 607 270.143 607 350.5C607 430.857 541.857 496 461.5 496C432.549 496 405.573 487.544 382.906 472.968Z" fill="url(#paint0_linear)"/>
</mask>
<g mask="url(#mask0)">
<path d="M636.581 457.163C636.224 452.188 635.501 447.386 634.606 442.221C632.414 429.171 630.23 415.67 635.479 400.865C640.727 386.059 650.927 376.948 660.849 368.193C664.798 364.745 668.383 361.47 671.794 357.831L678.716 364.376C675.027 368.371 671.078 371.819 667.128 375.267C657.753 383.762 648.934 391.544 644.362 404.014C639.972 416.397 641.825 428.265 643.939 440.681C644.835 445.847 645.548 451.1 646.08 456.439L636.581 457.163Z" fill="#F2C94C"/>
<path d="M608.175 468.91C612.382 456.615 610.521 445.197 608.494 432.964C606.302 419.915 604.119 406.414 609.368 391.608C614.616 376.803 624.816 367.692 634.737 358.937C644.017 350.711 652.567 342.834 657.13 330.815L666.1 334.147C660.86 348.501 650.756 357.343 641.017 366.011C631.642 374.505 622.823 382.288 618.251 394.757C613.861 407.14 615.714 419.009 617.828 431.425C619.933 444.292 622.029 457.61 617.058 472.06L608.175 468.91Z" fill="#F2C94C"/>
<path d="M554.784 493.012C556.164 491.683 557.726 490.268 559.193 489.121C568.568 480.627 577.387 472.844 581.959 460.375C586.349 447.992 584.496 436.123 582.382 423.708C580.191 410.658 578.007 397.157 583.256 382.352C588.504 367.546 598.704 358.435 608.625 349.68C618 341.186 626.819 333.403 631.391 320.934C635.781 308.551 633.928 296.682 631.815 284.267C631.58 282.365 631.075 280.368 630.84 278.467L640.261 277.109C640.496 279.011 640.913 280.825 641.148 282.727C643.34 295.776 645.523 309.277 640.275 324.083C635.026 338.888 624.827 347.999 614.905 356.755C605.53 365.249 596.711 373.031 592.139 385.501C587.749 397.884 589.602 409.752 591.716 422.168C593.908 435.217 596.091 448.718 590.843 463.524C585.594 478.329 575.395 487.44 565.473 496.196C564.093 497.524 562.626 498.671 561.246 500L554.784 493.012Z" fill="#F2C94C"/>
<path d="M506.255 517.929C506.741 516.131 507.227 514.334 507.895 512.449C513.143 497.644 523.343 488.533 533.264 479.778C542.639 471.283 551.458 463.501 556.03 451.031C560.42 438.648 558.567 426.78 556.454 414.364C554.262 401.315 552.078 387.814 557.327 373.008C562.575 358.203 572.775 349.092 582.697 340.337C592.071 331.842 600.891 324.06 605.463 311.59C609.852 299.207 607.999 287.339 605.886 274.923C603.694 261.874 601.51 248.373 606.759 233.567C607.427 231.683 608.182 229.981 608.937 228.279L617.534 232.236C616.874 233.668 616.215 235.101 615.825 236.629C611.435 249.012 613.288 260.881 615.401 273.297C617.593 286.346 619.777 299.847 614.528 314.652C609.28 329.458 599.08 338.569 589.159 347.324C579.784 355.819 570.964 363.601 566.392 376.071C562.003 388.453 563.856 400.322 565.969 412.738C568.161 425.787 570.345 439.288 565.096 454.093C559.847 468.899 549.648 478.01 539.726 486.765C530.352 495.26 521.532 503.042 516.96 515.512C516.483 516.858 515.91 518.473 515.52 520.001L506.255 517.929Z" fill="#F2C94C"/>
<path d="M478.97 532.497C478.212 524.805 477.775 514.499 481.6 503.279C486.849 488.474 497.048 479.363 506.97 470.608C516.345 462.113 525.164 454.331 529.736 441.861C534.126 429.478 532.273 417.61 530.159 405.194C527.967 392.145 525.784 378.644 531.033 363.838C536.281 349.033 546.481 339.922 556.402 331.167C565.777 322.672 574.596 314.89 579.168 302.42C583.558 290.037 581.705 278.169 579.592 265.753C577.4 252.704 575.216 239.203 580.465 224.397C584.473 213.091 591.304 205.362 596.824 200.046L603.564 206.678C598.686 211.463 592.87 218.038 589.53 227.459C585.141 239.842 586.994 251.711 589.107 264.127C591.299 277.176 593.483 290.677 588.234 305.482C582.985 320.288 572.786 329.399 562.864 338.154C553.49 346.649 544.67 354.431 540.098 366.901C535.708 379.283 537.561 391.152 539.675 403.568C541.867 416.617 544.05 430.118 538.802 444.923C533.553 459.729 523.354 468.84 513.432 477.595C504.057 486.09 495.238 493.872 490.666 506.342C487.326 515.763 487.789 524.715 488.477 531.322L478.97 532.497Z" fill="#F2C94C"/>
<path d="M455.903 543.714C455.503 540.996 455.016 538.096 454.615 535.379C452.423 522.33 450.24 508.829 455.489 494.023C460.737 479.218 470.937 470.106 480.858 461.351C490.233 452.857 499.052 445.075 503.624 432.605C508.014 420.222 506.161 408.353 504.048 395.938C501.856 382.888 499.672 369.388 504.921 354.582C510.17 339.776 520.369 330.665 530.291 321.91C539.665 313.416 548.485 305.633 553.057 293.164C557.446 280.781 555.593 268.912 553.48 256.497C551.288 243.447 549.105 229.946 554.353 215.141C559.602 200.335 569.801 191.224 579.723 182.469C581.745 180.61 583.95 178.665 585.973 176.806L592.435 183.794C590.23 185.739 588.207 187.598 586.003 189.544C576.628 198.038 567.809 205.82 563.236 218.29C558.847 230.673 560.7 242.542 562.813 254.957C565.005 268.007 567.189 281.507 561.94 296.313C556.691 311.118 546.492 320.23 536.57 328.985C527.196 337.479 518.376 345.261 513.804 357.731C509.415 370.114 511.267 381.983 513.381 394.398C515.573 407.448 517.756 420.949 512.508 435.754C507.259 450.56 497.06 459.671 487.138 468.426C477.763 476.92 468.944 484.703 464.372 497.172C459.982 509.555 461.835 521.424 463.949 533.839C464.436 536.739 464.923 539.639 465.323 542.357L455.903 543.714Z" fill="#F2C94C"/>
<path d="M429.954 554.514C431.488 545.058 429.948 535.725 428.417 525.94C426.225 512.89 424.042 499.389 429.291 484.584C434.539 469.778 444.739 460.667 454.66 451.912C464.035 443.418 472.854 435.635 477.426 423.166C481.816 410.783 479.963 398.914 477.85 386.499C475.658 373.449 473.474 359.948 478.723 345.143C483.971 330.337 494.171 321.226 504.093 312.471C513.467 303.977 522.287 296.194 526.859 283.725C531.248 271.342 529.395 259.473 527.282 247.058C525.09 234.008 522.906 220.507 528.155 205.702C533.404 190.896 543.603 181.785 553.525 173.03C560.877 166.394 567.769 160.201 572.716 151.804L581.027 156.568C575.42 166.399 567.521 173.295 559.987 180.018C550.612 188.512 541.793 196.294 537.221 208.764C532.649 221.234 534.684 233.015 536.797 245.431C538.989 258.48 541.173 271.981 535.924 286.787C530.676 301.592 520.476 310.704 510.555 319.459C501.18 327.953 492.36 335.735 487.788 348.205C483.399 360.588 485.252 372.457 487.365 384.872C489.557 397.922 491.741 411.422 486.492 426.228C481.243 441.034 471.044 450.145 461.122 458.9C451.748 467.394 442.928 475.177 438.356 487.646C433.967 500.029 435.819 511.898 437.933 524.313C439.638 534.463 441.247 544.882 439.505 555.779L429.954 554.514Z" fill="#F2C94C"/>
<path d="M390.244 571.648C395.869 565.612 399.592 559.811 401.882 553.35C406.272 540.968 404.419 529.099 402.306 516.683C400.114 503.634 397.93 490.133 403.179 475.328C408.427 460.522 418.627 451.411 428.549 442.656C437.923 434.161 446.743 426.379 451.315 413.909C455.704 401.527 453.851 389.658 451.738 377.242C449.546 364.193 447.362 350.692 452.611 335.886C457.86 321.081 468.059 311.97 477.981 303.215C487.355 294.72 496.175 286.938 500.747 274.468C505.137 262.085 503.284 250.217 501.17 237.801C498.978 224.752 496.795 211.251 502.043 196.445C507.292 181.64 517.491 172.529 527.413 163.774C536.788 155.279 545.607 147.497 550.179 135.027C552.469 128.566 553.231 121.716 552.665 113.485L562.163 112.761C562.887 122.26 561.83 130.37 559.245 138.089C553.996 152.895 543.797 162.006 533.875 170.761C524.5 179.256 515.681 187.038 511.109 199.508C506.719 211.89 508.572 223.759 510.686 236.175C512.878 249.224 515.061 262.725 509.812 277.53C504.564 292.336 494.364 301.447 484.443 310.202C475.068 318.697 466.249 326.479 461.677 338.949C457.287 351.332 459.14 363.2 461.253 375.616C463.445 388.665 465.629 402.166 460.38 416.972C455.132 431.777 444.932 440.888 435.01 449.643C425.636 458.138 416.816 465.92 412.244 478.39C407.855 490.773 409.708 502.641 411.821 515.057C414.013 528.106 416.197 541.607 410.948 556.413C408.18 564.219 403.806 571.002 397.262 577.924L390.244 571.648Z" fill="#F2C94C"/>
<path d="M329.336 601.569C334.811 589.117 344.09 580.891 353.005 572.84C362.38 564.346 371.199 556.563 375.771 544.094C380.161 531.711 378.308 519.842 376.194 507.426C374.002 494.377 371.819 480.876 377.068 466.071C382.316 451.265 392.516 442.154 402.437 433.399C411.812 424.904 420.631 417.122 425.203 404.652C429.593 392.27 427.74 380.401 425.627 367.985C423.435 354.936 421.251 341.435 426.5 326.63C431.748 311.824 441.948 302.713 451.87 293.958C461.244 285.463 470.064 277.681 474.636 265.211C479.025 252.829 477.172 240.96 475.059 228.544C472.867 215.495 470.684 201.994 475.932 187.188C481.181 172.383 491.38 163.272 501.302 154.517C510.677 146.022 519.496 138.24 524.068 125.77C528.458 113.387 526.605 101.519 524.491 89.1032C522.638 77.2345 520.698 65.1836 524.202 51.8807L533.372 54.2222C530.449 65.4585 532.145 76.0595 534.007 87.4767C536.199 100.526 538.382 114.027 533.133 128.833C527.885 143.638 517.685 152.749 507.764 161.504C498.389 169.999 489.57 177.781 484.998 190.251C480.608 202.634 482.461 214.502 484.575 226.918C486.766 239.967 488.95 253.468 483.701 268.274C478.453 283.079 468.253 292.19 458.332 300.945C448.957 309.44 440.138 317.222 435.566 329.692C431.176 342.075 433.029 353.943 435.142 366.359C437.334 379.408 439.518 392.909 434.269 407.715C429.02 422.52 418.821 431.631 408.899 440.387C399.525 448.881 390.705 456.663 386.133 469.133C381.561 481.603 383.596 493.384 385.71 505.8C387.902 518.849 390.085 532.35 384.837 547.156C379.588 561.961 369.389 571.072 359.467 579.828C351.012 587.436 342.836 594.689 338.029 605.257L329.336 601.569Z" fill="#F2C94C"/>
<path d="M298.309 618.146C298.098 610.192 299.138 602.986 301.524 596.256C306.772 581.45 316.972 572.339 326.893 563.584C336.268 555.09 345.087 547.307 349.659 534.838C354.049 522.455 352.196 510.586 350.082 498.17C347.891 485.121 345.707 471.62 350.956 456.815C356.204 442.009 366.404 432.898 376.325 424.143C385.7 415.648 394.519 407.866 399.092 395.396C403.481 383.014 401.628 371.145 399.515 358.729C397.323 345.68 395.139 332.179 400.388 317.374C405.637 302.568 415.836 293.457 425.758 284.702C435.132 276.207 443.952 268.425 448.524 255.955C452.914 243.573 451.061 231.704 448.947 219.288C446.755 206.239 444.572 192.738 449.82 177.932C455.069 163.127 465.268 154.016 475.19 145.261C484.565 136.766 493.384 128.984 497.956 116.514C502.346 104.131 500.493 92.2627 498.379 79.8472C496.187 66.7978 494.004 53.2968 499.252 38.4913C501.638 31.7615 505.37 25.5089 510.543 19.4642L517.743 25.6528C513.307 30.8985 510.322 35.9006 508.136 41.6405C503.746 54.0233 505.599 65.8919 507.713 78.3075C509.905 91.3569 512.088 104.858 506.839 119.663C501.591 134.469 491.391 143.58 481.47 152.335C472.095 160.83 463.276 168.612 458.704 181.082C454.314 193.464 456.167 205.333 458.28 217.749C460.472 230.798 462.656 244.299 457.407 259.104C452.158 273.91 441.959 283.021 432.037 291.776C422.663 300.271 413.843 308.053 409.271 320.523C404.882 332.906 406.735 344.774 408.848 357.19C411.04 370.239 413.223 383.74 407.975 398.546C402.726 413.351 392.527 422.462 382.605 431.217C373.23 439.712 364.411 447.494 359.839 459.964C355.449 472.347 357.302 484.215 359.416 496.631C361.608 509.68 363.791 523.181 358.543 537.987C353.294 552.792 343.095 561.903 333.173 570.658C323.798 579.153 314.979 586.935 310.407 599.405C308.403 605.058 307.658 611.006 307.799 617.874L298.309 618.146Z" fill="#F2C94C"/>
<path d="M274.687 630.074L274.357 628.442C272.165 615.392 269.981 601.891 275.23 587.086C280.479 572.28 290.678 563.169 300.6 554.414C309.974 545.92 318.794 538.137 323.366 525.668C327.755 513.285 325.902 501.416 323.789 489.001C321.597 475.951 319.414 462.45 324.662 447.645C329.911 432.839 340.11 423.728 350.032 414.973C359.407 406.478 368.226 398.696 372.798 386.226C377.37 373.757 375.335 361.975 373.221 349.559C371.029 336.51 368.846 323.009 374.094 308.204C379.343 293.398 389.542 284.287 399.464 275.532C408.839 267.037 417.658 259.255 422.23 246.785C426.62 234.403 424.767 222.534 422.653 210.118C420.461 197.069 418.278 183.568 423.527 168.762C428.775 153.957 438.975 144.846 448.896 136.091C458.271 127.596 467.09 119.814 471.662 107.344C476.052 94.9614 474.199 83.0928 472.086 70.6772C469.894 57.6278 467.71 44.1269 472.959 29.3214C478.207 14.5158 488.407 5.40467 498.329 -3.35042L499.613 -4.4101L505.893 2.66441L504.608 3.72408C495.233 12.2185 486.414 20.0008 481.842 32.4705C477.452 44.8533 479.305 56.722 481.419 69.1376C483.611 82.187 485.794 95.6879 480.546 110.493C475.297 125.299 465.098 134.41 455.176 143.165C445.801 151.66 436.982 159.442 432.41 171.912C428.02 184.294 429.873 196.163 431.987 208.579C434.179 221.628 436.362 235.129 431.113 249.934C425.865 264.74 415.665 273.851 405.744 282.606C396.369 291.101 387.55 298.883 382.978 311.353C378.588 323.736 380.441 335.604 382.555 348.02C384.746 361.069 386.93 374.57 381.681 389.376C376.433 404.181 366.233 413.292 356.312 422.047C346.937 430.542 338.118 438.324 333.545 450.794C328.973 463.264 331.009 475.045 333.122 487.461C335.314 500.51 337.498 514.011 332.249 528.817C327 543.622 316.801 552.733 306.879 561.488C297.505 569.983 288.685 577.765 284.113 590.235C279.723 602.618 281.576 614.486 283.69 626.902L284.02 628.534L274.687 630.074Z" fill="#F2C94C"/>
<path d="M250.457 640.726C250.593 633.502 249.463 626.434 248.245 619.185C246.053 606.135 243.869 592.634 249.118 577.829C254.367 563.023 264.566 553.912 274.488 545.157C283.863 536.663 292.682 528.88 297.254 516.411C301.644 504.028 299.791 492.159 297.677 479.744C295.485 466.694 293.302 453.193 298.55 438.388C303.799 423.582 313.998 414.471 323.92 405.716C333.295 397.222 342.114 389.439 346.686 376.97C351.076 364.587 349.223 352.718 347.109 340.302C344.917 327.253 342.734 313.752 347.983 298.947C353.231 284.141 363.431 275.03 373.352 266.275C382.727 257.78 391.546 249.998 396.118 237.528C400.508 225.146 398.655 213.277 396.541 200.861C394.35 187.812 392.166 174.311 397.415 159.506C402.663 144.7 412.863 135.589 422.784 126.834C432.159 118.339 440.978 110.557 445.551 98.0873C449.94 85.7045 448.087 73.8358 445.974 61.4203C443.782 48.3709 441.598 34.87 446.847 20.0644C452.096 5.25891 462.295 -3.85226 472.217 -12.6074C477.911 -17.5582 483.241 -22.3352 487.502 -27.9455L494.98 -22.113C489.981 -15.7037 484.191 -10.4837 478.583 -5.35054C469.209 3.14391 460.389 10.9262 455.817 23.3959C451.427 35.7787 453.28 47.6474 455.394 60.063C457.586 73.1124 459.769 86.6133 454.521 101.419C449.272 116.224 439.073 125.335 429.151 134.091C419.776 142.585 410.957 150.367 406.385 162.837C401.995 175.22 403.848 187.088 405.962 199.504C408.154 212.553 410.337 226.054 405.089 240.86C399.84 255.665 389.64 264.777 379.719 273.532C370.344 282.026 361.525 289.808 356.953 302.278C352.563 314.661 354.416 326.53 356.53 338.945C358.721 351.995 360.905 365.495 355.656 380.301C350.408 395.106 340.208 404.218 330.287 412.973C320.912 421.467 312.093 429.25 307.521 441.719C303.131 454.102 304.984 465.971 307.097 478.386C309.289 491.436 311.473 504.937 306.224 519.742C300.975 534.548 290.776 543.659 280.854 552.414C271.48 560.908 262.66 568.691 258.088 581.16C253.699 593.543 255.552 605.412 257.665 617.827C258.787 625.346 260.083 633.23 259.843 641.174L250.457 640.726Z" fill="#F2C94C"/>
<path d="M217.953 654.202C219.445 651.701 220.669 649.105 221.623 646.413C226.013 634.03 224.16 622.161 222.046 609.746C219.854 596.697 217.671 583.196 222.92 568.39C228.168 553.585 238.368 544.473 248.289 535.718C257.664 527.224 266.483 519.442 271.055 506.972C275.445 494.589 273.592 482.72 271.478 470.305C269.287 457.255 267.103 443.754 272.352 428.949C277.6 414.143 287.8 405.032 297.721 396.277C307.096 387.783 315.915 380 320.488 367.531C324.877 355.148 323.024 343.279 320.911 330.864C318.719 317.814 316.535 304.313 321.784 289.508C327.033 274.702 337.232 265.591 347.154 256.836C356.528 248.342 365.348 240.559 369.92 228.09C374.309 215.707 372.457 203.838 370.343 191.423C368.151 178.373 365.968 164.872 371.216 150.067C376.465 135.261 386.664 126.15 396.586 117.395C405.961 108.901 414.78 101.118 419.352 88.6485C423.742 76.2657 421.889 64.3971 419.775 51.9815C417.583 38.9321 415.4 25.4312 420.648 10.6257C425.897 -4.17987 436.096 -13.291 446.018 -22.0461C455.393 -30.5406 464.212 -38.3229 468.784 -50.7926C469.738 -53.4845 470.424 -56.2718 470.839 -59.1546L480.208 -57.8029C479.602 -54.3817 478.726 -51.056 477.581 -47.8257C472.332 -33.0202 462.133 -23.909 452.211 -15.1539C442.836 -6.65949 434.017 1.12282 429.445 13.5925C425.055 25.9753 426.908 37.844 429.022 50.2595C431.214 63.309 433.397 76.8099 428.148 91.6154C422.9 106.421 412.7 115.532 402.779 124.287C393.404 132.782 384.585 140.564 380.013 153.034C375.623 165.416 377.476 177.285 379.589 189.701C381.781 202.75 383.965 216.251 378.716 231.056C373.468 245.862 363.268 254.973 353.346 263.728C343.972 272.223 335.152 280.005 330.58 292.475C326.191 304.858 328.044 316.726 330.157 329.142C332.349 342.191 334.533 355.692 329.284 370.498C324.035 385.303 313.836 394.414 303.914 403.169C294.54 411.664 285.72 419.446 281.148 431.916C276.758 444.299 278.611 456.167 280.725 468.583C282.917 481.632 285.1 495.133 279.852 509.939C274.603 524.744 264.404 533.855 254.482 542.61C245.107 551.105 236.288 558.887 231.716 571.357C227.326 583.74 229.179 595.608 231.293 608.024C233.485 621.073 235.668 634.574 230.42 649.38C229.274 652.61 227.86 655.745 226.176 658.784L217.953 654.202Z" fill="#F2C94C"/>
<path d="M166.401 671.835C168.605 669.889 170.628 668.031 172.833 666.085C182.208 657.591 191.027 649.808 195.599 637.339C199.989 624.956 198.136 613.087 196.022 600.672C193.83 587.622 191.647 574.121 196.895 559.316C202.144 544.51 212.343 535.399 222.265 526.644C231.64 518.149 240.459 510.367 245.031 497.897C249.421 485.515 247.568 473.646 245.454 461.23C243.262 448.181 241.079 434.68 246.328 419.875C251.576 405.069 261.776 395.958 271.697 387.203C281.072 378.708 289.891 370.926 294.463 358.456C298.853 346.074 297 334.205 294.886 321.789C292.695 308.74 290.511 295.239 295.76 280.433C301.008 265.628 311.208 256.517 321.129 247.762C330.504 239.267 339.323 231.485 343.895 219.015C348.285 206.632 346.432 194.764 344.319 182.348C342.127 169.299 339.943 155.798 345.192 140.992C350.441 126.187 360.64 117.076 370.562 108.321C379.936 99.8261 388.756 92.0438 393.328 79.5742C397.717 67.1914 395.865 55.3227 393.751 42.9071C391.559 29.8577 389.376 16.3568 394.624 1.55129C399.873 -13.2542 410.072 -22.3654 419.994 -31.1205C429.369 -39.615 438.188 -47.3973 442.76 -59.8669C447.15 -72.2497 445.297 -84.1184 443.183 -96.534C442.696 -99.4339 442.296 -102.151 441.809 -105.051L451.229 -106.409C451.629 -103.691 452.116 -100.791 452.517 -98.0736C454.526 -84.9373 456.71 -71.4364 451.461 -56.6309C446.212 -41.8254 436.013 -32.7142 426.091 -23.9591C416.717 -15.4647 407.897 -7.68236 403.325 4.78733C398.935 17.1701 400.788 29.0388 402.902 41.4544C405.094 54.5038 407.277 68.0047 402.029 82.8102C396.78 97.6157 386.581 106.727 376.659 115.482C367.284 123.976 358.465 131.759 353.893 144.228C349.503 156.611 351.356 168.48 353.47 180.895C355.662 193.945 357.845 207.446 352.597 222.251C347.348 237.057 337.149 246.168 327.227 254.923C317.852 263.418 309.033 271.2 304.461 283.67C300.071 296.052 301.924 307.921 304.038 320.337C306.23 333.386 308.413 346.887 303.164 361.692C297.916 376.498 287.716 385.609 277.795 394.364C268.42 402.859 259.601 410.641 255.029 423.111C250.639 435.493 252.492 447.362 254.605 459.778C256.797 472.827 258.981 486.328 253.732 501.133C248.483 515.939 238.284 525.05 228.362 533.805C218.988 542.3 210.168 550.082 205.596 562.552C201.207 574.935 203.06 586.803 205.173 599.219C207.365 612.268 209.548 625.769 204.3 640.575C199.051 655.38 188.852 664.491 178.93 673.246C176.908 675.105 174.703 677.051 172.68 678.909L166.401 671.835Z" fill="#F2C94C"/>
<path d="M155.184 648.768C160.063 643.983 165.878 637.408 169.218 627.986C173.608 615.604 171.755 603.735 169.641 591.319C167.449 578.27 165.266 564.769 170.514 549.964C175.763 535.158 185.962 526.047 195.884 517.292C205.259 508.797 214.078 501.015 218.65 488.545C223.04 476.163 221.187 464.294 219.073 451.878C216.881 438.829 214.698 425.328 219.947 410.523C225.195 395.717 235.395 386.606 245.316 377.851C254.691 369.356 263.51 361.574 268.082 349.104C272.472 336.721 270.619 324.853 268.506 312.437C266.314 299.388 264.13 285.887 269.379 271.081C274.627 256.276 284.827 247.165 294.749 238.41C304.123 229.915 312.943 222.133 317.515 209.663C321.904 197.28 320.051 185.412 317.938 172.996C315.746 159.947 313.563 146.446 318.811 131.64C324.06 116.835 334.259 107.724 344.181 98.9685C353.556 90.4741 362.375 82.6918 366.947 70.2221C371.337 57.8393 369.484 45.9706 367.37 33.5551C365.178 20.5057 362.995 7.00475 368.243 -7.80077C373.492 -22.6063 383.691 -31.7175 393.613 -40.4726C402.988 -48.967 411.807 -56.7493 416.379 -69.219C419.806 -78.4584 419.343 -87.4101 418.568 -94.1997L427.98 -95.1055C428.738 -87.4129 429.175 -77.1067 425.349 -65.8875C420.101 -51.082 409.901 -41.9708 399.98 -33.2157C390.605 -24.7213 381.786 -16.939 377.214 -4.46931C372.824 7.91349 374.677 19.7821 376.79 32.1977C378.982 45.2471 381.166 58.748 375.917 73.5536C370.668 88.3591 360.469 97.4703 350.547 106.225C341.173 114.72 332.353 122.502 327.781 134.972C323.392 147.355 325.245 159.223 327.358 171.639C329.55 184.688 331.733 198.189 326.485 212.995C321.236 227.8 311.037 236.911 301.115 245.666C291.74 254.161 282.921 261.943 278.349 274.413C273.959 286.796 275.812 298.664 277.926 311.08C280.118 324.129 282.301 337.63 277.053 352.436C271.804 367.241 261.605 376.352 251.683 385.108C242.308 393.602 233.489 401.384 228.917 413.854C224.527 426.237 226.38 438.105 228.494 450.521C230.686 463.57 232.869 477.071 227.62 491.877C222.372 506.682 212.172 515.794 202.251 524.549C192.876 533.043 184.057 540.825 179.485 553.295C175.095 565.678 176.948 577.547 179.061 589.962C181.253 603.012 183.437 616.512 178.188 631.318C174.18 642.624 167.349 650.354 161.829 655.669L155.184 648.768Z" fill="#F2C94C"/>
<path d="M141.397 623.124C142.056 621.691 142.716 620.258 143.106 618.73C147.496 606.347 145.643 594.479 143.529 582.063C141.337 569.014 139.154 555.513 144.403 540.707C149.651 525.902 159.851 516.791 169.772 508.035C179.147 499.541 187.966 491.759 192.538 479.289C196.928 466.906 195.075 455.038 192.962 442.622C190.77 429.573 188.586 416.072 193.835 401.266C199.083 386.461 209.283 377.349 219.205 368.594C228.579 360.1 237.399 352.318 241.971 339.848C246.36 327.465 244.507 315.596 242.394 303.181C240.202 290.131 238.019 276.631 243.267 261.825C248.516 247.02 258.715 237.908 268.637 229.153C278.012 220.659 286.831 212.876 291.403 200.407C295.793 188.024 293.94 176.155 291.826 163.74C289.634 150.69 287.451 137.189 292.699 122.384C297.948 107.578 308.147 98.4672 318.069 89.7121C327.444 81.2177 336.263 73.4354 340.835 60.9657C345.225 48.5829 343.372 36.7142 341.258 24.2987C339.336 11.3447 337.152 -2.15622 342.401 -16.9617C347.649 -31.7673 357.849 -40.8784 367.77 -49.6335C377.145 -58.128 385.964 -65.9103 390.537 -78.38C391.014 -79.7259 391.586 -81.3411 391.977 -82.8693L401.146 -80.5278C400.66 -78.7303 400.175 -76.9328 399.507 -75.0485C394.258 -60.243 384.059 -51.1318 374.137 -42.3767C364.762 -33.8823 355.943 -26.1 351.371 -13.6303C346.981 -1.24748 348.834 10.6212 350.948 23.0368C353.14 36.0862 355.323 49.5871 350.074 64.3926C344.826 79.1981 334.626 88.3093 324.705 97.0644C315.33 105.559 306.511 113.341 301.939 125.811C297.549 138.194 299.402 150.062 301.516 162.478C303.707 175.527 305.891 189.028 300.642 203.834C295.394 218.639 285.194 227.75 275.273 236.505C265.898 245 257.079 252.782 252.506 265.252C248.117 277.635 249.97 289.503 252.083 301.919C254.275 314.968 256.459 328.469 251.21 343.275C245.961 358.08 235.762 367.191 225.84 375.947C216.466 384.441 207.646 392.223 203.074 404.693C198.685 417.076 200.538 428.944 202.651 441.36C204.843 454.409 207.026 467.91 201.778 482.716C196.529 497.521 186.33 506.633 176.408 515.388C167.033 523.882 158.214 531.664 153.642 544.134C149.252 556.517 151.105 568.386 153.219 580.801C155.411 593.851 157.594 607.351 152.346 622.157C151.678 624.041 150.923 625.743 150.168 627.445L141.397 623.124Z" fill="#F2C94C"/>
<path d="M118.574 578.519C118.339 576.618 117.922 574.803 117.687 572.902C115.495 559.852 113.312 546.351 118.56 531.546C123.809 516.74 134.008 507.629 143.93 498.874C153.305 490.38 162.124 482.597 166.696 470.128C171.086 457.745 169.233 445.876 167.119 433.461C164.927 420.411 162.744 406.91 167.993 392.105C173.241 377.299 183.441 368.188 193.362 359.433C202.737 350.939 211.556 343.156 216.128 330.687C220.518 318.304 218.665 306.435 216.552 294.02C214.36 280.97 212.176 267.469 217.425 252.664C222.673 237.858 232.873 228.747 242.795 219.992C252.169 211.497 260.989 203.715 265.561 191.245C269.95 178.863 268.097 166.994 265.984 154.578C263.792 141.529 261.609 128.028 266.857 113.223C272.106 98.4171 282.305 89.3059 292.227 80.5508C301.602 72.0564 310.421 64.2741 314.993 51.8044C319.383 39.4216 317.53 27.5529 315.416 15.1373C313.224 2.08793 311.041 -11.413 316.289 -26.2185C321.538 -41.024 331.737 -50.1352 341.659 -58.8903C343.039 -60.2191 344.506 -61.3657 345.886 -62.6946L352.348 -55.7069C350.699 -54.4735 349.319 -53.1446 347.939 -51.8158C338.564 -43.3213 329.745 -35.539 325.173 -23.0693C320.783 -10.6865 322.636 1.18212 324.749 13.5977C326.941 26.6471 329.125 40.148 323.876 54.9535C318.628 69.7591 308.428 78.8702 298.507 87.6253C289.132 96.1198 280.312 103.902 275.74 116.372C271.351 128.755 273.204 140.623 275.317 153.039C277.509 166.088 279.693 179.589 274.444 194.395C269.195 209.2 258.996 218.311 249.074 227.066C239.7 235.561 230.88 243.343 226.308 255.813C221.918 268.196 223.771 280.064 225.885 292.48C228.077 305.529 230.26 319.03 225.012 333.836C219.763 348.641 209.564 357.752 199.642 366.508C190.267 375.002 181.448 382.784 176.876 395.254C172.486 407.637 174.339 419.505 176.453 431.921C178.645 444.97 180.828 458.471 175.58 473.277C170.331 488.082 160.132 497.194 150.21 505.949C140.835 514.443 132.016 522.225 127.444 534.695C123.054 547.078 124.907 558.947 127.021 571.362C127.256 573.264 127.76 575.26 127.995 577.162L118.574 578.519Z" fill="#F2C94C"/>
<path d="M92.7352 521.482C97.9753 507.128 108.079 498.286 117.819 489.618C127.193 481.123 136.013 473.341 140.585 460.871C144.974 448.488 143.121 436.62 141.008 424.204C138.816 411.155 136.633 397.654 141.881 382.848C147.13 368.043 157.329 358.932 167.251 350.177C176.626 341.682 185.445 333.9 190.017 321.43C194.407 309.047 192.554 297.179 190.44 284.763C188.248 271.714 186.065 258.213 191.313 243.407C196.562 228.602 206.761 219.491 216.683 210.735C226.058 202.241 234.877 194.459 239.449 181.989C243.839 169.606 241.986 157.738 239.872 145.322C237.68 132.273 235.497 118.772 240.746 103.966C245.994 89.1606 256.194 80.0494 266.115 71.2943C275.49 62.7999 284.309 55.0176 288.881 42.5479C293.271 30.1651 291.418 18.2965 289.305 5.88087C287.199 -6.98622 285.103 -20.3048 289.892 -34.6674L298.957 -31.6051C294.75 -19.3092 296.611 -7.89203 298.638 4.34125C300.83 17.3907 303.013 30.8915 297.765 45.6971C292.516 60.5026 282.317 69.6138 272.395 78.3689C263.02 86.8633 254.201 94.6456 249.629 107.115C245.239 119.498 247.092 131.367 249.206 143.782C251.398 156.832 253.581 170.333 248.332 185.138C243.084 199.944 232.884 209.055 222.963 217.81C213.588 226.304 204.769 234.087 200.197 246.556C195.807 258.939 197.66 270.808 199.774 283.223C201.965 296.273 204.149 309.774 198.9 324.579C193.652 339.385 183.452 348.496 173.531 357.251C164.156 365.745 155.337 373.528 150.764 385.997C146.375 398.38 148.228 410.249 150.341 422.665C152.533 435.714 154.717 449.215 149.468 464.02C144.219 478.826 134.02 487.937 124.098 496.692C114.819 504.917 106.269 512.795 101.705 524.813L92.7352 521.482Z" fill="#F2C94C"/>
<path d="M80.1186 491.252C83.8076 487.257 87.7572 483.809 91.7067 480.361C101.081 471.866 109.901 464.084 114.473 451.614C118.863 439.231 117.01 427.363 114.896 414.947C112.704 401.898 110.521 388.397 115.769 373.591C121.018 358.786 131.217 349.675 141.139 340.92C150.514 332.425 159.333 324.643 163.905 312.173C168.295 299.79 166.442 287.922 164.328 275.506C162.136 262.457 159.953 248.956 165.201 234.15C170.45 219.345 180.649 210.234 190.571 201.478C199.946 192.984 208.765 185.202 213.337 172.732C217.727 160.349 215.874 148.481 213.76 136.065C211.568 123.016 209.385 109.515 214.634 94.7092C219.882 79.9037 230.082 70.7925 240.003 62.0374C249.378 53.5429 258.197 45.7606 262.769 33.2909C267.159 20.9081 265.306 9.03949 263.193 -3.3761C262.297 -8.54202 261.583 -13.7948 261.052 -19.1345L270.551 -19.858C270.908 -14.8829 271.63 -10.0816 272.526 -4.91572C274.718 8.13368 276.901 21.6346 271.653 36.4401C266.404 51.2456 256.205 60.3568 246.283 69.1119C236.908 77.6063 228.089 85.3886 223.517 97.8583C219.127 110.241 220.98 122.11 223.094 134.525C225.286 147.575 227.469 161.076 222.221 175.881C216.972 190.687 206.773 199.798 196.851 208.553C187.476 217.047 178.657 224.83 174.085 237.299C169.695 249.682 171.548 261.551 173.662 273.966C175.854 287.016 178.037 300.517 172.788 315.322C167.54 330.128 157.34 339.239 147.419 347.994C138.044 356.489 129.225 364.271 124.653 376.741C120.081 389.21 122.116 400.992 124.229 413.408C126.421 426.457 128.605 439.958 123.356 454.763C118.107 469.569 107.908 478.68 97.9864 487.435C94.0368 490.883 90.4518 494.158 87.0406 497.797L80.1186 491.252Z" fill="#F2C94C"/>
<path d="M69.0936 467.647C76.6281 460.925 83.9975 453.386 88.0924 442.262C92.4822 429.88 90.6292 418.011 88.5156 405.595C86.3237 392.546 84.1403 379.045 89.3889 364.239C94.6375 349.434 104.837 340.323 114.759 331.568C124.133 323.073 132.953 315.291 137.525 302.821C141.914 290.438 140.061 278.57 137.948 266.154C135.756 253.105 133.572 239.604 138.821 224.798C144.07 209.993 154.269 200.882 164.191 192.127C173.566 183.632 182.385 175.85 186.957 163.38C191.347 150.997 189.494 139.129 187.38 126.713C185.188 113.664 183.005 100.163 188.253 85.3573C193.502 70.5517 203.701 61.4406 213.623 52.6855C222.998 44.191 231.817 36.4087 236.389 23.939C240.302 12.9022 239.239 2.22282 237.621 -7.7444L247.042 -9.10171C248.738 1.49933 249.948 13.8978 245.272 27.0882C240.024 41.8937 229.824 51.0049 219.903 59.76C210.528 68.2544 201.709 76.0367 197.137 88.5064C192.747 100.889 194.6 112.758 196.713 125.173C198.905 138.223 201.089 151.724 195.84 166.529C190.592 181.335 180.392 190.446 170.47 199.201C161.096 207.696 152.276 215.478 147.704 227.948C143.315 240.33 145.168 252.199 147.281 264.615C149.473 277.664 151.657 291.165 146.408 305.97C141.159 320.776 130.96 329.887 121.038 338.642C111.664 347.137 102.844 354.919 98.2722 367.389C93.8825 379.771 95.7354 391.64 97.849 404.056C100.041 417.105 102.224 430.606 96.9757 445.411C92.2997 458.602 83.5502 467.469 75.5556 474.635L69.0936 467.647Z" fill="#F2C94C"/>
<path d="M56.5398 443.652C58.9525 440.265 60.6446 436.774 61.9806 433.006C66.3704 420.623 64.5174 408.754 62.4038 396.339C60.2119 383.289 58.0285 369.788 63.2771 354.983C68.5257 340.177 78.7251 331.066 88.6468 322.311C98.0215 313.817 106.841 306.034 111.413 293.565C115.803 281.182 113.95 269.313 111.836 256.898C109.644 243.848 107.461 230.347 112.709 215.542C117.958 200.736 128.157 191.625 138.079 182.87C147.454 174.376 156.273 166.593 160.845 154.124C165.235 141.741 163.382 129.872 161.268 117.457C159.076 104.407 156.893 90.9063 162.142 76.1008C167.39 61.2952 177.59 52.1841 187.511 43.429C196.886 34.9345 205.705 27.1522 210.277 14.6825C211.613 10.9139 212.498 7.13663 212.757 2.98623L222.135 3.88643C221.771 8.75752 220.783 13.2554 219.161 17.8317C213.912 32.6372 203.713 41.7484 193.791 50.5035C184.416 58.9979 175.597 66.7802 171.025 79.2499C166.635 91.6327 168.488 103.501 170.602 115.917C172.794 128.966 174.977 142.467 169.728 157.273C164.48 172.078 154.28 181.189 144.359 189.945C134.984 198.439 126.165 206.221 121.593 218.691C117.021 231.161 119.056 242.942 121.169 255.358C123.361 268.407 125.545 281.908 120.296 296.714C115.048 311.519 104.848 320.631 94.9265 329.386C85.5517 337.88 76.7325 345.662 72.1604 358.132C67.7707 370.515 69.6236 382.384 71.7372 394.799C73.9292 407.849 76.1125 421.349 70.8639 436.155C69.2416 440.731 67.1764 444.847 64.3905 448.86L56.5398 443.652Z" fill="#F2C94C"/>
<path d="M38.3916 409.796C38.6238 402.302 37.5884 394.966 36.2923 387.082C34.1004 374.033 31.917 360.532 37.1656 345.727C42.4142 330.921 52.6136 321.81 62.5353 313.055C71.91 304.56 80.7293 296.778 85.3014 284.308C89.6911 271.925 87.8381 260.057 85.7245 247.641C83.5326 234.592 81.3492 221.091 86.5978 206.285C91.8464 191.48 102.046 182.369 111.968 173.614C121.342 165.119 130.162 157.337 134.734 144.867C139.306 132.398 137.27 120.616 135.157 108.2C132.965 95.1507 130.781 81.6498 136.03 66.8443C141.279 52.0388 151.478 42.9276 161.4 34.1725C167.189 28.9525 172.884 24.0017 177.336 17.853L184.909 23.4164C179.901 30.2772 173.565 35.7578 167.593 41.0647C158.218 49.5592 149.398 57.3415 144.826 69.8112C140.437 82.194 142.29 94.0626 144.403 106.478C146.595 119.528 148.779 133.029 143.53 147.834C138.281 162.64 128.082 171.751 118.16 180.506C108.786 189 99.9663 196.783 95.3943 209.252C91.0045 221.635 92.8575 233.504 94.9711 245.919C97.163 258.969 99.3464 272.47 94.0978 287.275C88.8492 302.081 78.6498 311.192 68.7281 319.947C59.3534 328.441 50.534 336.224 45.962 348.693C41.5723 361.076 43.4252 372.945 45.5388 385.36C46.8349 393.244 48.0356 401.397 47.8732 409.975L38.3916 409.796Z" fill="#F2C94C"/>
<path d="M8.69538 346.543C9.30215 343.122 10.1781 339.796 11.3232 336.566C16.5718 321.76 26.7713 312.649 36.693 303.894C46.0677 295.399 54.887 287.617 59.459 275.147C63.8487 262.764 61.9958 250.896 59.8822 238.48C57.6903 225.431 55.5069 211.93 60.7555 197.124C66.0041 182.319 76.2035 173.208 86.1252 164.453C95.4999 155.958 104.319 148.176 108.891 135.706C113.281 123.323 111.428 111.455 109.314 99.0391C107.122 85.9897 104.939 72.4888 110.188 57.6833C111.333 54.453 112.747 51.3181 114.431 48.2787L122.559 53.1299C121.066 55.6309 119.843 58.2274 118.889 60.9193C114.499 73.3021 116.352 85.1708 118.466 97.5864C120.657 110.636 122.841 124.137 117.592 138.942C112.344 153.748 102.144 162.859 92.2225 171.614C82.8478 180.108 74.0285 187.891 69.4565 200.36C65.0667 212.743 66.9197 224.612 69.0333 237.027C71.2252 250.077 73.4086 263.578 68.16 278.383C62.9114 293.189 52.712 302.3 42.7903 311.055C33.4156 319.55 24.5963 327.332 20.0243 339.802C19.07 342.493 18.3848 345.281 17.9689 348.164L8.69538 346.543Z" fill="#F2C94C"/>
<path d="M-6.08446 311.304C-1.08515 304.894 4.70462 299.674 10.3121 294.541C19.6868 286.047 28.5061 278.265 33.0782 265.795C37.4679 253.412 35.615 241.543 33.5014 229.128C31.3094 216.078 29.126 202.578 34.3746 187.772C39.6232 172.966 49.8226 163.855 59.7443 155.1C69.1191 146.606 77.9384 138.823 82.5104 126.354C86.9001 113.971 85.0472 102.102 82.9336 89.6867C81.8113 82.1679 80.5152 74.2844 80.7559 66.3397L90.2375 66.5192C89.9184 73.8301 90.9624 80.7151 92.267 88.1471C94.4589 101.197 96.6423 114.697 91.3937 129.503C86.1451 144.308 75.9457 153.42 66.024 162.175C56.6493 170.669 47.83 178.451 43.2579 190.921C38.8682 203.304 40.7212 215.173 42.8348 227.588C45.0267 240.638 47.2101 254.139 41.9615 268.944C36.7129 283.75 26.5135 292.861 16.5918 301.616C10.8975 306.567 5.56771 311.344 1.30619 316.954L-6.08446 311.304Z" fill="#F2C94C"/>
<path d="M-17.0842 286.345L-15.7994 285.285C-6.42467 276.79 2.39458 269.008 6.96662 256.538C11.3564 244.156 9.5034 232.287 7.38981 219.871C5.19788 206.822 3.01452 193.321 8.26311 178.516C13.5117 163.71 23.7111 154.599 33.6328 145.844C43.0075 137.349 51.8268 129.567 56.3989 117.097C60.7886 104.715 58.9356 92.8459 56.822 80.4303L56.4916 78.7981L65.825 77.2585L66.1554 78.8907C68.3474 91.9401 70.5308 105.441 65.2822 120.247C60.0336 135.052 49.8342 144.163 39.9125 152.918C30.5377 161.413 21.7184 169.195 17.1464 181.665C12.7567 194.048 14.6096 205.916 16.7232 218.332C18.9151 231.381 21.0985 244.882 15.8499 259.688C10.6013 274.493 0.401924 283.604 -9.51975 292.359L-10.8045 293.419L-17.0842 286.345Z" fill="#F2C94C"/>
<path d="M-28.8386 263.087C-24.4034 257.841 -21.418 252.839 -19.2317 247.099C-14.842 234.717 -16.6949 222.848 -18.8085 210.432C-21.0005 197.383 -23.1838 183.882 -17.9352 169.077C-12.6866 154.271 -2.48722 145.16 7.43446 136.405C16.8092 127.91 25.6285 120.128 30.2005 107.658C32.2045 102.005 32.9495 96.0575 32.8085 89.1895L42.2986 88.9175C42.5093 96.8708 41.4695 104.078 39.0838 110.807C33.8352 125.613 23.6358 134.724 13.7142 143.479C4.3394 151.974 -4.4799 159.756 -9.05195 172.226C-13.4417 184.609 -11.5887 196.477 -9.47513 208.893C-7.2832 221.942 -5.09979 235.443 -10.3484 250.249C-12.7341 256.978 -16.4658 263.231 -21.6389 269.276L-28.8386 263.087Z" fill="#F2C94C"/>
<path d="M-44.4677 234.517C-41.545 223.28 -43.2413 212.679 -45.1028 201.262C-47.2947 188.213 -49.4781 174.712 -44.2295 159.906C-38.9809 145.101 -28.7815 135.99 -18.8598 127.235C-10.4052 119.626 -2.22825 112.374 2.57879 101.805L11.1758 105.762C5.70077 118.215 -3.57857 126.44 -12.4933 134.491C-21.868 142.986 -30.6873 150.768 -35.2593 163.238C-39.6491 175.621 -37.7961 187.489 -35.6825 199.905C-33.8296 211.774 -31.8897 223.825 -35.3935 237.127L-44.4677 234.517Z" fill="#F2C94C"/>
</g>
<defs>
<linearGradient id="paint0_linear" x1="149" y1="117" x2="453.5" y2="578" gradientUnits="userSpaceOnUse">
<stop stop-color="#F2C94C"/>
<stop offset="1" stop-color="#F2C94C" stop-opacity="0"/>
</linearGradient>
</defs>
</svg>
