<svg width="200" height="160" viewBox="0 0 200 160" fill="none" xmlns="http://www.w3.org/2000/svg">
<rect width="200" height="160" rx="4" fill="url(#paint0_linear)"/>
<g clip-path="url(#clip0)">
<path d="M133.304 54.3213H60.0057C60.0057 54.3213 60.0684 97.9805 60.0057 100.396C60.0052 100.417 60.0052 100.438 60.0059 100.458C60.0688 102.783 61.0212 104.958 62.6873 106.583C64.3573 108.212 66.5616 109.109 68.8949 109.109H107.611C107.922 109.109 108.221 108.986 108.441 108.766L134.135 83.0719C134.355 82.8516 134.479 82.5532 134.479 82.2416V55.4954C134.479 54.8468 133.953 54.3213 133.304 54.3213Z" fill="#E0E0E2"/>
<path d="M81.2438 85.0236H86.0419L89.8892 72.9504L108.518 54.3213H104.135L85.5056 72.9504L81.2438 85.0236Z" fill="#C6C5CA"/>
<path d="M133.304 54.3213H129.391V87.8161L134.135 83.0719C134.355 82.8516 134.478 82.5532 134.478 82.2416V55.4954C134.479 54.8468 133.953 54.3213 133.304 54.3213Z" fill="#C6C5CA"/>
<path d="M113.501 85.9856H80.9831C80.3346 85.9856 79.8088 85.46 79.8088 84.8114C79.8088 84.1628 80.3346 83.6372 80.9831 83.6372H113.501C114.149 83.6372 114.675 84.1628 114.675 84.8114C114.675 85.46 114.149 85.9856 113.501 85.9856Z" fill="#3C5156"/>
<path d="M68.9231 91.0887C69.4295 91.0887 69.9256 91.1326 70.4094 91.213V42.705C70.4094 42.0564 69.8836 41.5308 69.2352 41.5308C64.143 41.5308 60 45.6736 60 50.7659V98.8586C60.6048 94.4697 64.3681 91.0887 68.9231 91.0887Z" fill="#919191"/>
<path d="M123.742 53.2008L116.691 46.1489C116.47 45.9288 116.172 45.8052 115.86 45.8052C115.549 45.8052 115.25 45.9289 115.03 46.1489L89.0589 72.12C89.0432 72.1356 89.0293 72.1524 89.0146 72.1689L97.8537 80.7497L123.742 54.8614C124.201 54.4027 124.201 53.6594 123.742 53.2008Z" fill="#F2C94C"/>
<path d="M94.6281 77.6183L97.8538 80.7498L123.742 54.8615C124.201 54.4028 124.201 53.6595 123.742 53.2009L121.393 50.8511L94.6281 77.6183Z" fill="#FFA304"/>
<path d="M89.0178 72.1719C88.9139 72.2861 88.8311 72.4205 88.778 72.5708L84.9345 83.4588C84.7841 83.8852 84.8917 84.36 85.2114 84.6799C85.4355 84.9039 85.7356 85.0236 86.0417 85.0236C86.1728 85.0236 86.3047 85.0017 86.4325 84.9566L97.3203 81.1131C97.5298 81.0392 97.7086 80.9074 97.8434 80.7395L89.0178 72.1719Z" fill="#FFC89F"/>
<path d="M86.042 85.0239C86.1731 85.0239 86.3049 85.0021 86.4327 84.9569L97.3206 81.1135C97.5301 81.0396 97.7088 80.9077 97.8437 80.7399L94.6245 77.6147L85.8949 80.739L84.9348 83.4588C84.7843 83.8852 84.892 84.36 85.2116 84.6799C85.4357 84.9041 85.7357 85.0239 86.042 85.0239Z" fill="#F7B081"/>
<path d="M86.0419 85.0237C86.173 85.0237 86.3049 85.0018 86.4327 84.9567L93.299 82.5329L87.3474 76.624L84.9349 83.4586C84.7844 83.885 84.8921 84.3598 85.2118 84.6796C85.4357 84.9039 85.7357 85.0237 86.0419 85.0237Z" fill="#3C5156"/>
<path d="M90.0088 79.2666L85.8949 80.7389L84.9348 83.4588C84.7843 83.8852 84.892 84.36 85.2116 84.6799C85.4357 84.9039 85.7359 85.0236 86.042 85.0236C86.1731 85.0236 86.3049 85.0018 86.4327 84.9566L93.299 82.5329L90.0088 79.2666Z" fill="#304144"/>
<path d="M127.558 49.3858L120.506 42.3341C120.047 41.8756 119.304 41.8756 118.845 42.3341L114.203 46.9762L122.912 55.6923L127.558 51.0466C127.778 50.8263 127.901 50.5278 127.901 50.2162C127.901 49.9048 127.778 49.6062 127.558 49.3858Z" fill="#FF6137"/>
<path d="M119.733 52.5105L120.836 53.6145L122.913 55.6911L127.558 51.0461C127.778 50.8258 127.901 50.5274 127.901 50.2158C127.901 49.9044 127.778 49.6058 127.558 49.3855L125.208 47.0356L119.733 52.5105Z" fill="#E04F32"/>
<path d="M130.715 42.8259L127.066 39.1769C126.389 38.5008 125.49 38.1284 124.534 38.1284C123.578 38.1284 122.678 38.5008 122.002 39.1769L119.677 41.5019L118.845 42.334L117.999 43.1801L126.727 51.8765L127.974 50.6298L130.715 47.8892C131.391 47.2131 131.763 46.3137 131.763 45.3575C131.763 44.4012 131.391 43.5022 130.715 42.8259Z" fill="#546F7A"/>
<path d="M118.013 43.166L117.999 43.1804L120.603 45.7748L118.013 43.166Z" fill="#475D63"/>
<path d="M130.715 42.826L127.835 39.9463C128.306 40.5722 128.564 41.3305 128.564 42.1305C128.564 43.0974 128.192 44.0064 127.516 44.6904L124.775 47.4614L123.545 48.7058L126.728 51.8769L127.974 50.6302L130.715 47.8896C131.391 47.2135 131.763 46.3141 131.763 45.3579C131.763 44.4016 131.391 43.5022 130.715 42.826Z" fill="#475D63"/>
<path d="M139.275 75.6354C138.836 75.4535 138.331 75.554 137.995 75.8898L98.0182 115.867C97.6825 116.203 97.582 116.708 97.7637 117.147C97.9454 117.585 98.3737 117.871 98.8486 117.871H138.826C139.474 117.871 140 117.346 140 116.697V76.7202C140 76.2454 139.714 75.817 139.275 75.6354ZM117.505 108.373L130.337 95.5412V108.373H117.505Z" fill="#F2C94C"/>
<path d="M139.275 75.6354C138.836 75.4535 138.331 75.554 137.995 75.8898L134.912 78.9735V117.872H138.826C139.474 117.872 140 117.346 140 116.697V76.7202C140 76.2454 139.714 75.817 139.275 75.6354Z" fill="#FFA304"/>
<path d="M140 89.9146H135.485C134.837 89.9146 134.311 90.4402 134.311 91.0888C134.311 91.7374 134.837 92.263 135.485 92.263H140V89.9146Z" fill="#C96E14"/>
<path d="M140 95.8013H135.485C134.837 95.8013 134.311 96.3269 134.311 96.9755C134.311 97.6241 134.837 98.1497 135.485 98.1497H140V95.8013Z" fill="#C96E14"/>
<path d="M140 101.688H135.485C134.837 101.688 134.311 102.214 134.311 102.862C134.311 103.511 134.837 104.036 135.485 104.036H140V101.688Z" fill="#C96E14"/>
<path d="M140 107.575H135.485C134.837 107.575 134.311 108.1 134.311 108.749C134.311 109.398 134.837 109.923 135.485 109.923H140V107.575Z" fill="#C96E14"/>
</g>
<defs>
<linearGradient id="paint0_linear" x1="100" y1="0" x2="100" y2="160" gradientUnits="userSpaceOnUse">
<stop stop-color="#F2C94C" stop-opacity="0.16"/>
<stop offset="1" stop-color="#F2C94C" stop-opacity="0"/>
</linearGradient>
<clipPath id="clip0">
<rect width="80" height="80" fill="white" transform="translate(60 38)"/>
</clipPath>
</defs>
</svg>
