<svg width="200" height="160" viewBox="0 0 200 160" fill="none" xmlns="http://www.w3.org/2000/svg">
<rect width="200" height="160" rx="4" fill="url(#paint0_linear)"/>
<g clip-path="url(#clip0)">
<path d="M100.033 40C86.144 39.9819 74.8265 51.2842 74.8267 65.1736C74.8268 74.4069 79.7987 82.4778 87.2107 86.8583C88.5268 87.6361 89.3235 89.0617 89.3235 90.5906V96.7222C89.5671 96.6203 89.8345 96.5638 90.1149 96.5638H109.885C110.166 96.5638 110.433 96.6203 110.676 96.7222V90.5905C110.676 89.0436 111.503 87.6222 112.833 86.8325C120.221 82.446 125.173 74.3888 125.173 65.1735C125.173 51.2816 113.921 40.0181 100.033 40Z" fill="#FFE181"/>
<path d="M95.9767 90.5906C95.9767 89.0619 95.1801 87.6361 93.8638 86.8583C86.4518 82.4777 81.4799 74.4069 81.4798 65.1736C81.4796 52.4211 91.0207 41.851 103.333 40.2197C102.253 40.0769 101.152 40.0016 100.034 40C86.1442 39.9819 74.8265 51.2841 74.8267 65.1736C74.8268 74.4069 79.7987 82.4778 87.2107 86.8583C88.527 87.6361 89.3235 89.0619 89.3235 90.5906V96.7222C89.5671 96.6203 89.8345 96.5638 90.1149 96.5638H95.9767V90.5906Z" fill="#F2C94C"/>
<path d="M103.153 97.7709C102.486 97.7709 101.946 97.2305 101.946 96.5637V85.7597C101.946 84.6739 102.311 83.6028 102.975 82.7434L104.702 80.5069C105.041 80.068 105.228 79.5211 105.228 78.9666V67.6916C105.228 67.0248 105.768 66.4844 106.435 66.4844C107.102 66.4844 107.642 67.0248 107.642 67.6916V78.9666C107.642 80.0523 107.277 81.1234 106.613 81.9828L104.886 84.2194C104.547 84.6583 104.36 85.2052 104.36 85.7597V96.5637C104.36 97.2305 103.82 97.7709 103.153 97.7709Z" fill="#FFB640"/>
<path d="M96.8469 97.7709C96.1801 97.7709 95.6397 97.2305 95.6397 96.5637V85.7597C95.6397 85.2053 95.453 84.6583 95.1141 84.2194L93.3864 81.9828C92.7228 81.1236 92.3572 80.0523 92.3572 78.9666V67.6916C92.3572 67.0248 92.8976 66.4844 93.5644 66.4844C94.2311 66.4844 94.7716 67.0248 94.7716 67.6916V78.9666C94.7716 79.5211 94.9583 80.068 95.2972 80.5067L97.0248 82.7433C97.6886 83.6027 98.0541 84.6739 98.0541 85.7595V96.5636C98.0541 97.2305 97.5136 97.7709 96.8469 97.7709Z" fill="#FFB640"/>
<path d="M117.561 60.2442C116.254 55.3759 112.898 51.3053 108.352 49.0764C107.754 48.7828 107.506 48.0595 107.8 47.4611C108.093 46.8625 108.817 46.6153 109.415 46.9086C114.586 49.4444 118.405 54.077 119.892 59.6184C120.065 60.2623 119.683 60.9245 119.039 61.0973C118.396 61.2701 117.733 60.8886 117.561 60.2442Z" fill="#FFEAC8"/>
<path d="M95.1245 114.241V115.125C95.1245 117.806 97.3183 120 99.9995 120C102.681 120 104.875 117.807 104.875 115.125V114.241H95.1245Z" fill="#8479C2"/>
<path d="M99.4886 115.125V114.241H95.1245V115.125C95.1245 117.806 97.3183 120 99.9995 120C100.783 120 101.524 119.812 102.182 119.48C100.588 118.676 99.4886 117.023 99.4886 115.125Z" fill="#6E60B8"/>
<path d="M107.642 70.2376H92.3578C91.6911 70.2376 91.1506 69.6971 91.1506 69.0304C91.1506 68.3637 91.6911 67.8232 92.3578 67.8232H107.642C108.309 67.8232 108.849 68.3637 108.849 69.0304C108.849 69.6971 108.309 70.2376 107.642 70.2376Z" fill="#FEC458"/>
<path d="M68.971 65.7362H64.818C64.1513 65.7362 63.6108 65.1957 63.6108 64.529C63.6108 63.8622 64.1513 63.3218 64.818 63.3218H68.971C69.6377 63.3218 70.1782 63.8622 70.1782 64.529C70.1782 65.1955 69.6377 65.7362 68.971 65.7362Z" fill="#F2C94C"/>
<path d="M70.1561 58.0753L66.2733 56.6017C65.65 56.3651 65.3364 55.668 65.573 55.0447C65.8097 54.4214 66.5066 54.1081 67.13 54.3444L71.0129 55.818C71.6361 56.0545 71.9497 56.7517 71.7132 57.375C71.4768 57.9978 70.7802 58.3117 70.1561 58.0753Z" fill="#F2C94C"/>
<path d="M65.573 74.0133C65.3364 73.39 65.65 72.6928 66.2733 72.4563L70.1561 70.9827C70.7791 70.7461 71.4766 71.0596 71.7132 71.683C71.9497 72.3063 71.6361 73.0035 71.0129 73.24L67.13 74.7136C66.5066 74.9502 65.8097 74.6368 65.573 74.0133Z" fill="#F2C94C"/>
<path d="M135.182 65.7362H131.029C130.362 65.7362 129.821 65.1957 129.821 64.529C129.821 63.8622 130.362 63.3218 131.029 63.3218H135.182C135.848 63.3218 136.389 63.8622 136.389 64.529C136.389 65.1955 135.848 65.7362 135.182 65.7362Z" fill="#F2C94C"/>
<path d="M128.287 57.3746C128.05 56.7513 128.364 56.0541 128.987 55.8176L132.87 54.344C133.493 54.1076 134.19 54.4208 134.427 55.0443C134.663 55.6676 134.35 56.3647 133.726 56.6013L129.844 58.0751C129.22 58.3115 128.523 57.998 128.287 57.3746Z" fill="#F2C94C"/>
<path d="M132.87 74.7136L128.987 73.24C128.364 73.0035 128.05 72.3063 128.287 71.683C128.523 71.0597 129.22 70.7461 129.844 70.9827L133.727 72.4563C134.35 72.6928 134.663 73.39 134.427 74.0133C134.19 74.6361 133.494 74.95 132.87 74.7136Z" fill="#F2C94C"/>
<path d="M108.276 108.308H91.7237C90.5686 108.308 89.6289 109.248 89.6289 110.403V112.186C89.6289 113.341 90.5686 114.281 91.7237 114.281H108.276C109.431 114.281 110.371 113.341 110.371 112.186V110.403C110.371 109.248 109.431 108.308 108.276 108.308Z" fill="#EFECEF"/>
<path d="M108.276 111.294H91.7237C90.7778 111.294 89.9772 110.664 89.718 109.801C89.6606 109.992 89.6289 110.194 89.6289 110.403V112.186C89.6289 113.341 90.5686 114.281 91.7237 114.281H108.276C109.431 114.281 110.371 113.341 110.371 112.186V110.403C110.371 110.194 110.339 109.992 110.282 109.801C110.023 110.664 109.222 111.294 108.276 111.294Z" fill="#E2DFE2"/>
<path d="M109.885 102.416H90.1147C88.9597 102.416 88.02 103.356 88.02 104.511V106.294C88.02 107.449 88.9597 108.389 90.1147 108.389H109.885C111.04 108.389 111.98 107.449 111.98 106.294V104.511C111.98 103.356 111.04 102.416 109.885 102.416Z" fill="#EFECEF"/>
<path d="M109.885 105.402H90.1147C89.1688 105.402 88.3682 104.771 88.109 103.909C88.0516 104.099 88.0199 104.301 88.0199 104.51V106.293C88.0199 107.449 88.9596 108.388 90.1146 108.388H109.885C111.04 108.388 111.98 107.449 111.98 106.293V104.51C111.98 104.301 111.948 104.099 111.891 103.909C111.631 104.771 110.831 105.402 109.885 105.402Z" fill="#E2DFE2"/>
<path d="M109.885 96.5234H90.1147C88.9597 96.5234 88.02 97.4631 88.02 98.6183V100.401C88.02 101.556 88.9597 102.496 90.1147 102.496H109.885C111.04 102.496 111.98 101.556 111.98 100.401V98.6183C111.98 97.4631 111.04 96.5234 109.885 96.5234Z" fill="#EFECEF"/>
<path d="M109.885 99.5097H90.1147C89.1688 99.5097 88.3682 98.8791 88.109 98.0166C88.0516 98.2074 88.0199 98.4091 88.0199 98.6182V100.401C88.0199 101.556 88.9596 102.496 90.1146 102.496H109.885C111.04 102.496 111.98 101.556 111.98 100.401V98.6182C111.98 98.4089 111.948 98.2072 111.891 98.0166C111.631 98.8791 110.831 99.5097 109.885 99.5097Z" fill="#E2DFE2"/>
</g>
<defs>
<linearGradient id="paint0_linear" x1="100" y1="0" x2="100" y2="160" gradientUnits="userSpaceOnUse">
<stop stop-color="#F2C94C" stop-opacity="0.16"/>
<stop offset="1" stop-color="#F2C94C" stop-opacity="0"/>
</linearGradient>
<clipPath id="clip0">
<rect width="80" height="80" fill="white" transform="translate(60 40)"/>
</clipPath>
</defs>
</svg>
