<svg width="200" height="160" viewBox="0 0 200 160" fill="none" xmlns="http://www.w3.org/2000/svg">
<rect width="200" height="160" rx="4" fill="url(#paint0_linear)"/>
<g clip-path="url(#clip0)">
<path d="M75.5933 120V48.1357H132.542V115.932C132.542 118.179 130.722 120 128.475 120H75.5933Z" fill="#E6E6E6"/>
<path d="M88.4745 61.6948C85.8534 61.6948 83.7287 59.5702 83.7287 56.9491V52.2034H86.4406V56.9492C86.4406 58.0719 87.3518 58.9831 88.4745 58.9831C89.5971 58.9831 90.5084 58.0719 90.5084 56.9492V46.7797C90.5084 44.533 88.6873 42.7119 86.4406 42.7119C84.1939 42.7119 82.3728 44.533 82.3728 46.7797V48.1356H79.6609V46.7797C79.6609 43.0359 82.6968 40 86.4406 40C90.1843 40 93.2203 43.0359 93.2203 46.7797V56.9492C93.2203 59.5702 91.0956 61.6948 88.4745 61.6948Z" fill="#754C24"/>
<path d="M104.068 92.8813H127.118V95.5932H104.068V92.8813Z" fill="#999999"/>
<path d="M104.068 98.3052H127.118V101.017H104.068V98.3052Z" fill="#999999"/>
<path d="M104.068 103.729H121.695V106.44H104.068V103.729Z" fill="#999999"/>
<path d="M113.559 87.4575H127.118V90.1694H113.559V87.4575Z" fill="#999999"/>
<path d="M116.271 77.966C121.513 77.966 125.763 73.7165 125.763 68.4745C125.763 63.2324 121.513 58.9829 116.271 58.9829C111.029 58.9829 106.78 63.2324 106.78 68.4745C106.78 73.7165 111.029 77.966 116.271 77.966Z" fill="#FBB03B"/>
<path d="M81.0171 68.4746H83.729V79.3221H81.0171V68.4746Z" fill="#29ABE2"/>
<path d="M86.4404 71.1865H89.1523V79.3221H86.4404V71.1865Z" fill="#FBB03B"/>
<path d="M91.8643 65.7627H94.5761V79.3221H91.8643V65.7627Z" fill="#29ABE2"/>
<path d="M97.2881 69.8306H99.9999V79.3221H97.2881V69.8306Z" fill="#FBB03B"/>
<path d="M82.3728 88.8135H98.6441V105.085H82.3728V88.8135Z" fill="#FFCA10"/>
<path d="M108.136 87.4575H110.848V90.1694H108.136V87.4575Z" fill="#999999"/>
<path d="M124.754 64.2336C123.149 61.0187 119.865 58.9861 116.271 58.9834V68.475L124.754 64.2336Z" fill="#DA4836"/>
<path d="M116.271 58.9834C111.029 58.9834 106.78 63.2329 106.779 68.4736C106.779 70.9915 107.778 73.4064 109.56 75.1868L116.271 68.475V58.9834Z" fill="#0071BC"/>
<path d="M128.475 120C126.228 120 124.407 118.179 124.407 115.933V113.221H67.4578V115.933C67.4578 118.179 69.2789 120 71.5256 120H128.475Z" fill="#FEC458"/>
</g>
<defs>
<linearGradient id="paint0_linear" x1="100" y1="0" x2="100" y2="160" gradientUnits="userSpaceOnUse">
<stop stop-color="#F2C94C" stop-opacity="0.16"/>
<stop offset="1" stop-color="#F2C94C" stop-opacity="0"/>
</linearGradient>
<clipPath id="clip0">
<rect width="80" height="80" fill="white" transform="translate(60 40)"/>
</clipPath>
</defs>
</svg>
