<svg width="200" height="160" viewBox="0 0 200 160" fill="none" xmlns="http://www.w3.org/2000/svg">
<rect width="200" height="160" rx="4" fill="url(#paint0_linear)"/>
<g clip-path="url(#clip0)">
<path d="M88.7773 105.268H111.13V114.519H88.7773V105.268Z" fill="#5A5A5A"/>
<path d="M135.806 106.563H64.1022C61.8365 106.563 60 104.727 60 102.461V44.1022C60 41.8365 61.8365 40 64.1022 40H135.806C138.071 40 139.908 41.8365 139.908 44.1022V102.461C139.908 104.727 138.071 106.563 135.806 106.563Z" fill="#F2C94C"/>
<path d="M139.909 44.1027V102.461C139.909 104.726 138.072 106.563 135.806 106.563H130.795C133.061 106.563 134.898 104.726 134.898 102.461V44.1027C134.898 41.837 133.061 40.0005 130.795 40.0005H135.806C138.072 40.0005 139.909 41.837 139.909 44.1027Z" fill="#FFB509"/>
<path d="M139.908 96.6802H60V102.461C60 104.726 61.8365 106.563 64.1022 106.563H135.806C138.071 106.563 139.908 104.726 139.908 102.461V96.6802Z" fill="#838383"/>
<path d="M139.909 96.6797V102.461C139.909 104.727 138.072 106.563 135.806 106.563H130.795C133.061 106.563 134.898 104.727 134.898 102.461V96.6797H139.909Z" fill="#5A5A5A"/>
<path d="M139.999 53.9941H60.0891V44.1022C60.0891 41.8365 61.9257 40 64.1907 40H135.897C138.163 40 139.999 41.8365 139.999 44.1022V53.9941Z" fill="#ACACAC"/>
<path d="M140 44.1014V53.9946H134.897V44.1014C134.897 41.837 133.061 40.0005 130.795 40.0005H135.898C138.163 40.0005 140 41.837 140 44.1014Z" fill="#9C9C9C"/>
<path d="M118.374 119.91H81.5338C81.0901 119.91 80.73 119.55 80.73 119.106V116.501C80.73 114.734 82.1625 113.301 83.9294 113.301H115.978C117.745 113.301 119.178 114.734 119.178 116.501V119.106C119.178 119.55 118.818 119.91 118.374 119.91Z" fill="#838383"/>
<path d="M119.178 116.5V119.107C119.178 119.551 118.818 119.911 118.373 119.911H115.535V116.5C115.535 114.734 114.103 113.301 112.337 113.301H115.979C117.746 113.301 119.178 114.734 119.178 116.5Z" fill="#5A5A5A"/>
<path d="M69.1369 69.1392C68.8372 69.1392 68.5369 69.0251 68.308 68.7962L64.5269 65.0145C64.0692 64.5573 64.0692 63.8151 64.5269 63.3574L68.308 59.5762C68.7658 59.1185 69.508 59.1185 69.9658 59.5762C70.4235 60.034 70.4235 60.7756 69.9658 61.2333L67.0129 64.1862L69.9658 67.1391C70.4235 67.5969 70.4235 68.3384 69.9658 68.7962C69.7369 69.0251 69.4366 69.1392 69.1369 69.1392Z" fill="#838383"/>
<path d="M78.1776 69.1392C77.8779 69.1392 77.5776 69.0251 77.3487 68.7962C76.8909 68.3384 76.8909 67.5963 77.3487 67.1391L80.3016 64.1862L77.3487 61.2333C76.8909 60.7756 76.8909 60.0334 77.3487 59.5762C77.8065 59.1185 78.5486 59.1185 79.0064 59.5762L82.7875 63.3574C83.2453 63.8151 83.2453 64.5573 82.7875 65.0145L79.0064 68.7962C78.7775 69.0251 78.4772 69.1392 78.1776 69.1392Z" fill="#838383"/>
<path d="M72.3004 69.1399C72.1576 69.1399 72.0129 69.1137 71.8719 69.0581C71.2695 68.8219 70.9729 68.1414 71.2097 67.539L74.1809 59.9761C74.4177 59.3743 75.0983 59.0771 75.7001 59.3139C76.3025 59.5507 76.5991 60.2312 76.3623 60.8337L73.3911 68.3959C73.2098 68.8579 72.7679 69.1399 72.3004 69.1399Z" fill="#838383"/>
<path d="M74.1631 76.2158H66.0381C65.3911 76.2158 64.8662 75.6909 64.8662 75.0439C64.8662 74.3964 65.3911 73.8721 66.0381 73.8721H74.1631C74.8107 73.8721 75.335 74.3964 75.335 75.0439C75.335 75.6909 74.8107 76.2158 74.1631 76.2158Z" fill="#838383"/>
<path d="M92.8778 76.2158H78.5925C77.9456 76.2158 77.4207 75.6909 77.4207 75.0439C77.4207 74.3964 77.9456 73.8721 78.5925 73.8721H92.8778C93.5254 73.8721 94.0497 74.3964 94.0497 75.0439C94.0497 75.6909 93.5254 76.2158 92.8778 76.2158Z" fill="#838383"/>
<path d="M69.4994 81.3022H66.0381C65.3911 81.3022 64.8662 80.778 64.8662 80.1304C64.8662 79.4834 65.3911 78.9585 66.0381 78.9585H69.4994C70.147 78.9585 70.6713 79.4834 70.6713 80.1304C70.6713 80.778 70.1464 81.3022 69.4994 81.3022Z" fill="#838383"/>
<path d="M90.573 81.3022H88.4648C87.8179 81.3022 87.293 80.778 87.293 80.1304C87.293 79.4834 87.8179 78.9585 88.4648 78.9585H90.573C91.22 78.9585 91.7449 79.4834 91.7449 80.1304C91.7449 80.778 91.22 81.3022 90.573 81.3022Z" fill="#838383"/>
<path d="M84.0845 81.3022H73.7317C73.0841 81.3022 72.5598 80.778 72.5598 80.1304C72.5598 79.4834 73.0841 78.9585 73.7317 78.9585H84.0845C84.7321 78.9585 85.2563 79.4834 85.2563 80.1304C85.2563 80.778 84.7314 81.3022 84.0845 81.3022Z" fill="#838383"/>
<path d="M98.3458 81.3022H94.3975C93.7505 81.3022 93.2256 80.778 93.2256 80.1304C93.2256 79.4834 93.7505 78.9585 94.3975 78.9585H98.3458C98.9928 78.9585 99.5177 79.4834 99.5177 80.1304C99.5177 80.778 98.9928 81.3022 98.3458 81.3022Z" fill="#838383"/>
<path d="M90.7872 65.1191H86.6228C85.9752 65.1191 85.4509 64.5948 85.4509 63.9473C85.4509 63.3003 85.9752 62.7754 86.6228 62.7754H90.7872C91.4348 62.7754 91.9591 63.3003 91.9591 63.9473C91.9591 64.5948 91.4348 65.1191 90.7872 65.1191Z" fill="#838383"/>
<path d="M120.86 65.1191H95.4509C94.804 65.1191 94.2791 64.5948 94.2791 63.9473C94.2791 63.3003 94.804 62.7754 95.4509 62.7754H120.86C121.507 62.7754 122.032 63.3003 122.032 63.9473C122.032 64.5948 121.507 65.1191 120.86 65.1191Z" fill="#838383"/>
<path d="M117 70.4258H106.708C106.061 70.4258 105.536 69.9015 105.536 69.2539C105.536 68.6069 106.061 68.082 106.708 68.082H117C117.648 68.082 118.172 68.6069 118.172 69.2539C118.172 69.9015 117.648 70.4258 117 70.4258Z" fill="#838383"/>
<path d="M102.849 70.4258H99.3103C98.6633 70.4258 98.1384 69.9015 98.1384 69.2539C98.1384 68.6069 98.6633 68.082 99.3103 68.082H102.849C103.496 68.082 104.02 68.6069 104.02 69.2539C104.02 69.9015 103.496 70.4258 102.849 70.4258Z" fill="#838383"/>
<path d="M95.2905 70.4258H86.6223C85.9753 70.4258 85.4504 69.9015 85.4504 69.2539C85.4504 68.6069 85.9753 68.082 86.6223 68.082H95.2905C95.9375 68.082 96.4624 68.6069 96.4624 69.2539C96.4624 69.9015 95.9375 70.4258 95.2905 70.4258Z" fill="#838383"/>
<path d="M84.0996 86.3472H75.9746C75.327 86.3472 74.8027 85.8223 74.8027 85.1753C74.8027 84.5277 75.327 84.0034 75.9746 84.0034H84.0996C84.7472 84.0034 85.2715 84.5277 85.2715 85.1753C85.2715 85.8223 84.7472 86.3472 84.0996 86.3472Z" fill="#838383"/>
<path d="M72.2808 86.3472H66.0381C65.3911 86.3472 64.8662 85.8223 64.8662 85.1753C64.8662 84.5277 65.3911 84.0034 66.0381 84.0034H72.2808C72.9277 84.0034 73.4526 84.5277 73.4526 85.1753C73.4526 85.8223 72.9277 86.3472 72.2808 86.3472Z" fill="#838383"/>
<path d="M98.828 86.3472H88.2146C87.567 86.3472 87.0427 85.8223 87.0427 85.1753C87.0427 84.5277 87.567 84.0034 88.2146 84.0034H98.828C99.4756 84.0034 99.9999 84.5277 99.9999 85.1753C99.9999 85.8223 99.4756 86.3472 98.828 86.3472Z" fill="#838383"/>
<path d="M106.354 81.1548H132.471V89.9994H106.354V81.1548Z" fill="#64DCFC"/>
<path d="M106.354 94.8237H132.471V103.026H106.354V94.8237Z" fill="#64DCFC"/>
<path d="M129.383 81.1548H132.471V89.9994H129.383V81.1548Z" fill="#00D1FC"/>
<path d="M129.383 94.8237H132.471V103.026H129.383V94.8237Z" fill="#00D1FC"/>
<path d="M134.634 83.0762H104.191C103.547 83.0762 103.025 82.5543 103.025 81.9104V76.0486C103.025 75.4047 103.547 74.8828 104.191 74.8828H134.634C135.278 74.8828 135.799 75.4047 135.799 76.0486V81.9104C135.799 82.5543 135.278 83.0762 134.634 83.0762Z" fill="#0396FD"/>
<path d="M134.634 96.2202H104.191C103.547 96.2202 103.025 95.6984 103.025 95.0544V89.1926C103.025 88.5487 103.547 88.0269 104.191 88.0269H134.634C135.278 88.0269 135.799 88.5487 135.799 89.1926V95.0544C135.799 95.6984 135.278 96.2202 134.634 96.2202Z" fill="#0396FD"/>
<path d="M134.634 109.364H104.191C103.547 109.364 103.025 108.842 103.025 108.198V102.337C103.025 101.693 103.547 101.171 104.191 101.171H134.634C135.278 101.171 135.799 101.693 135.799 102.337V108.198C135.799 108.842 135.278 109.364 134.634 109.364Z" fill="#0396FD"/>
<path d="M135.8 76.0486V81.9104C135.8 82.5537 135.278 83.0762 134.634 83.0762H131.929C132.574 83.0762 133.094 82.5537 133.094 81.9104V76.0486C133.094 75.4053 132.574 74.8828 131.929 74.8828H134.634C135.278 74.8828 135.8 75.4053 135.8 76.0486Z" fill="#0077F0"/>
<path d="M135.8 89.1921V95.054C135.8 95.6991 135.278 96.2203 134.634 96.2203H131.929C132.574 96.2203 133.094 95.6991 133.094 95.054V89.1921C133.094 88.5488 132.574 88.0264 131.929 88.0264H134.634C135.278 88.0264 135.8 88.5488 135.8 89.1921Z" fill="#0077F0"/>
<path d="M135.8 102.337V108.199C135.8 108.842 135.278 109.365 134.634 109.365H131.929C132.574 109.365 133.094 108.842 133.094 108.199V102.337C133.094 101.693 132.574 101.171 131.929 101.171H134.634C135.278 101.171 135.8 101.693 135.8 102.337Z" fill="#0077F0"/>
<path d="M113.182 80.1514H107.378C106.731 80.1514 106.206 79.6271 106.206 78.9795C106.206 78.3325 106.731 77.8076 107.378 77.8076H113.182C113.829 77.8076 114.354 78.3325 114.354 78.9795C114.354 79.6271 113.829 80.1514 113.182 80.1514Z" fill="#E7E7E7"/>
<path d="M131.447 80.1514H123.253C122.606 80.1514 122.081 79.6271 122.081 78.9795C122.081 78.3325 122.606 77.8076 123.253 77.8076H131.447C132.094 77.8076 132.618 78.3325 132.618 78.9795C132.618 79.6271 132.094 80.1514 131.447 80.1514Z" fill="#E7E7E7"/>
<path d="M119.156 80.1514H117.278C116.631 80.1514 116.106 79.6271 116.106 78.9795C116.106 78.3325 116.631 77.8076 117.278 77.8076H119.156C119.804 77.8076 120.328 78.3325 120.328 78.9795C120.328 79.6271 119.803 80.1514 119.156 80.1514Z" fill="#E7E7E7"/>
<path d="M113.182 93.2954H107.378C106.731 93.2954 106.206 92.7711 106.206 92.1235C106.206 91.4766 106.731 90.9517 107.378 90.9517H113.182C113.829 90.9517 114.354 91.4766 114.354 92.1235C114.354 92.7711 113.829 93.2954 113.182 93.2954Z" fill="#E7E7E7"/>
<path d="M131.447 93.2954H123.253C122.606 93.2954 122.081 92.7711 122.081 92.1235C122.081 91.4766 122.606 90.9517 123.253 90.9517H131.447C132.094 90.9517 132.618 91.4766 132.618 92.1235C132.618 92.7711 132.094 93.2954 131.447 93.2954Z" fill="#E7E7E7"/>
<path d="M119.156 93.2954H117.278C116.631 93.2954 116.106 92.7711 116.106 92.1235C116.106 91.4766 116.631 90.9517 117.278 90.9517H119.156C119.804 90.9517 120.328 91.4766 120.328 92.1235C120.328 92.7711 119.803 93.2954 119.156 93.2954Z" fill="#E7E7E7"/>
<path d="M113.182 106.439H107.378C106.731 106.439 106.206 105.915 106.206 105.268C106.206 104.621 106.731 104.096 107.378 104.096H113.182C113.829 104.096 114.354 104.621 114.354 105.268C114.354 105.915 113.829 106.439 113.182 106.439Z" fill="#E7E7E7"/>
<path d="M131.447 106.439H123.253C122.606 106.439 122.081 105.915 122.081 105.268C122.081 104.621 122.606 104.096 123.253 104.096H131.447C132.094 104.096 132.618 104.621 132.618 105.268C132.618 105.915 132.094 106.439 131.447 106.439Z" fill="#E7E7E7"/>
<path d="M119.156 106.439H117.278C116.631 106.439 116.106 105.915 116.106 105.268C116.106 104.621 116.631 104.096 117.278 104.096H119.156C119.804 104.096 120.328 104.621 120.328 105.268C120.328 105.915 119.803 106.439 119.156 106.439Z" fill="#E7E7E7"/>
<path d="M70.0226 46.9628C70.0226 48.2518 68.9777 49.2961 67.6892 49.2961C66.4001 49.2961 65.3552 48.2518 65.3552 46.9628C65.3552 45.6743 66.4001 44.6294 67.6892 44.6294C68.9777 44.6294 70.0226 45.6743 70.0226 46.9628Z" fill="#FF5770"/>
<path d="M79.0339 46.9628C79.0339 48.2518 77.9896 49.2961 76.7006 49.2961C75.4121 49.2961 74.3672 48.2518 74.3672 46.9628C74.3672 45.6743 75.4121 44.6294 76.7006 44.6294C77.9896 44.6294 79.0339 45.6743 79.0339 46.9628Z" fill="#FFD86E"/>
<path d="M88.0457 46.9628C88.0457 48.2518 87.0007 49.2961 85.7123 49.2961C84.4232 49.2961 83.3789 48.2518 83.3789 46.9628C83.3789 45.6743 84.4232 44.6294 85.7123 44.6294C87.0007 44.6294 88.0457 45.6743 88.0457 46.9628Z" fill="#80E0DC"/>
<path d="M70.0212 46.9633C70.0212 48.2517 68.9775 49.2954 67.6897 49.2954C67.0653 49.2954 66.4977 49.0507 66.0796 48.6503C67.3418 48.6228 68.3586 47.5907 68.3586 46.3199C68.3586 45.6547 68.0803 45.0559 67.6348 44.6317C67.6525 44.6299 67.672 44.6299 67.6897 44.6299C68.9775 44.6299 70.0212 45.6736 70.0212 46.9633Z" fill="#FF435F"/>
<path d="M79.0332 46.9633C79.0332 48.2517 77.9895 49.2954 76.6998 49.2954C76.076 49.2954 75.5103 49.0507 75.0903 48.6503C76.3544 48.6228 77.3706 47.5907 77.3706 46.3199C77.3706 45.6547 77.0923 45.0559 76.6473 44.6317C76.6644 44.6299 76.6821 44.6299 76.7004 44.6299C77.9901 44.6299 79.0332 45.6736 79.0332 46.9633Z" fill="#FFB509"/>
<path d="M88.0455 46.9633C88.0455 48.2517 87 49.2954 85.7122 49.2954C85.0878 49.2954 84.522 49.0507 84.1021 48.6503C85.3661 48.6228 86.3811 47.5907 86.3811 46.3199C86.3811 45.6547 86.1028 45.0559 85.6572 44.6317C85.6749 44.6299 85.6945 44.6299 85.7122 44.6299C87 44.6299 88.0455 45.6736 88.0455 46.9633Z" fill="#00A8B0"/>
</g>
<defs>
<linearGradient id="paint0_linear" x1="100" y1="0" x2="100" y2="160" gradientUnits="userSpaceOnUse">
<stop stop-color="#F2C94C" stop-opacity="0.16"/>
<stop offset="1" stop-color="#F2C94C" stop-opacity="0"/>
</linearGradient>
<clipPath id="clip0">
<rect width="80" height="80" fill="white" transform="translate(60 40)"/>
</clipPath>
</defs>
</svg>
