<svg width="48" height="48" viewBox="0 0 48 48" fill="none" xmlns="http://www.w3.org/2000/svg">
<path d="M19.1264 3.39315C20.8005 -1.13105 27.1995 -1.13105 28.8736 3.39315L32.2938 12.636C32.8201 14.0584 33.9416 15.1799 35.364 15.7062L44.6069 19.1264C49.1311 20.8005 49.1311 27.1995 44.6068 28.8736L35.364 32.2938C33.9416 32.8201 32.8201 33.9416 32.2938 35.364L28.8736 44.6069C27.1995 49.1311 20.8005 49.1311 19.1264 44.6068L15.7062 35.364C15.1799 33.9416 14.0584 32.8201 12.636 32.2938L3.39315 28.8736C-1.13105 27.1995 -1.13105 20.8005 3.39315 19.1264L12.636 15.7062C14.0584 15.1799 15.1799 14.0584 15.7062 12.636L19.1264 3.39315Z" fill="#F2C94C"/>
</svg>
